<svg width="2879" height="1695" viewBox="0 0 2879 1695" fill="none" xmlns="http://www.w3.org/2000/svg">
<g clip-path="url(#clip0_3_224)">
<rect width="2879" height="1695" fill="#9E6666"/>
<rect x="-182" y="-126" width="3101" height="1876" fill="#5C7985"/>
<path d="M2528.93 1092.36V1107.36C2537.22 1107.36 2543.93 1100.64 2543.93 1092.36H2528.93ZM2584 1016.22L2576.37 1003.31L2576.37 1003.31L2584 1016.22ZM2498.93 1092.36H2483.93C2483.93 1100.64 2490.65 1107.36 2498.93 1107.36V1092.36ZM2568.74 990.391L2561.11 977.476L2561.11 977.476L2568.74 990.391ZM2843.78 970.908L2857.88 976.032C2860.71 968.246 2856.69 959.64 2848.9 956.811L2843.78 970.908ZM2833.53 999.104L2828.41 1013.2C2832.15 1014.56 2836.27 1014.38 2839.88 1012.7C2843.48 1011.01 2846.27 1007.97 2847.63 1004.23L2833.53 999.104ZM2909.76 1007.25L2919.27 995.649C2916.19 993.126 2912.24 991.929 2908.28 992.32C2904.32 992.711 2900.68 994.659 2898.16 997.735L2909.76 1007.25ZM2955.32 1178.1V1193.1C2963.6 1193.1 2970.32 1186.38 2970.32 1178.1H2955.32ZM2925.32 1178.1H2910.32C2910.32 1186.38 2917.03 1193.1 2925.32 1193.1V1178.1ZM2890.73 1030.44L2879.13 1020.93C2876.61 1024.01 2875.41 1027.96 2875.81 1031.92C2876.2 1035.88 2878.14 1039.52 2881.22 1042.04L2890.73 1030.44ZM2543.93 1092.36C2543.93 1072.46 2557.79 1049.13 2591.63 1029.14L2576.37 1003.31C2537.76 1026.12 2513.93 1057.61 2513.93 1092.36H2543.93ZM2498.93 1107.36H2528.93V1077.36H2498.93V1107.36ZM2561.11 977.476C2517.86 1003.03 2483.93 1042.65 2483.93 1092.36H2513.93C2513.93 1057.6 2537.77 1026.11 2576.37 1003.31L2561.11 977.476ZM2727.13 936.42C2663.83 936.42 2605.07 951.511 2561.11 977.476L2576.37 1003.31C2614.95 980.516 2668.25 966.42 2727.13 966.42V936.42ZM2848.9 956.811C2812.94 943.739 2771.23 936.42 2727.13 936.42V966.42C2768 966.42 2806.21 973.215 2838.65 985.006L2848.9 956.811ZM2847.63 1004.23L2857.88 976.032L2829.68 965.785L2819.43 993.98L2847.63 1004.23ZM2727.13 996.42C2764.77 996.42 2799.49 1002.69 2828.41 1013.2L2838.65 985.006C2806.21 973.215 2768 966.42 2727.13 966.42V996.42ZM2591.63 1029.14C2624.84 1009.52 2672.67 996.42 2727.13 996.42V966.42C2668.25 966.42 2614.95 980.516 2576.37 1003.31L2591.63 1029.14ZM2970.32 1092.36C2970.32 1053.25 2949.05 1020.07 2919.27 995.649L2900.24 1018.85C2925.48 1039.54 2940.32 1064.93 2940.32 1092.36H2970.32ZM2970.32 1178.1V1092.36H2940.32V1178.1H2970.32ZM2925.32 1193.1H2955.32V1163.1H2925.32V1193.1ZM2910.32 1092.36V1178.1H2940.32V1092.36H2910.32ZM2881.22 1042.04C2901.85 1058.96 2910.32 1076.57 2910.32 1092.36H2940.32C2940.32 1064.94 2925.48 1039.54 2900.24 1018.85L2881.22 1042.04ZM2898.16 997.735L2879.13 1020.93L2902.33 1039.96L2921.36 1016.76L2898.16 997.735Z" fill="#F6AE9F"/>
<path d="M3023.66 220.5H3094.49C3142.07 220.5 3180.65 196.525 3180.65 166.95C3180.65 137.376 3142.07 113.4 3094.49 113.4H2952.82C2905.24 113.4 2866.67 137.376 2866.67 166.95" stroke="#F6AE9F" stroke-width="30" stroke-linejoin="round"/>
<path d="M1681.74 -56.4266L1693.11 -46.6473C1695.71 -49.6638 1697 -53.5871 1696.7 -57.5541C1696.4 -61.5211 1694.53 -65.2068 1691.52 -67.8005L1681.74 -56.4266ZM1707.24 92.1061L1715.97 79.907L1715.97 79.907L1707.24 92.1061ZM1835.5 129.9H1850.5C1850.5 121.616 1843.78 114.9 1835.5 114.9V129.9ZM1835.5 159.9V174.9C1843.78 174.9 1850.5 168.184 1850.5 159.9H1835.5ZM1689.78 116.504L1681.06 128.703L1681.06 128.703L1689.78 116.504ZM1658.99 -75.9851L1668.77 -87.359C1662.49 -92.76 1653.02 -92.0461 1647.62 -85.7644L1658.99 -75.9851ZM1715.55 -119.584L1708.67 -132.918C1705.14 -131.096 1702.47 -127.943 1701.26 -124.154C1700.05 -120.365 1700.39 -116.25 1702.21 -112.713L1715.55 -119.584ZM1967.38 -147.3H1982.38C1982.38 -155.584 1975.66 -162.3 1967.38 -162.3V-147.3ZM1967.38 -117.3V-102.3C1975.66 -102.3 1982.38 -109.016 1982.38 -117.3H1967.38ZM1729.29 -92.9161L1715.95 -86.0455C1719.75 -78.6814 1728.79 -75.7876 1736.16 -79.5822L1729.29 -92.9161ZM1671.78 6.3002C1671.78 -12.0211 1678.9 -30.1155 1693.11 -46.6473L1670.36 -66.2058C1652.23 -45.1087 1641.78 -20.2756 1641.78 6.3002H1671.78ZM1715.97 79.907C1686.52 58.836 1671.78 32.4068 1671.78 6.3002H1641.78C1641.78 44.5599 1663.44 79.2136 1698.51 104.305L1715.97 79.907ZM1835.5 114.9C1787.54 114.9 1745.38 100.949 1715.97 79.907L1698.51 104.305C1733.57 129.386 1782 144.9 1835.5 144.9V114.9ZM1850.5 159.9V129.9H1820.5V159.9H1850.5ZM1681.06 128.703C1721.76 157.825 1776.46 174.9 1835.5 174.9V144.9C1782 144.9 1733.57 129.386 1698.51 104.305L1681.06 128.703ZM1611.78 6.3002C1611.78 56.7645 1640.42 99.6289 1681.06 128.703L1698.51 104.305C1663.45 79.2157 1641.78 44.5629 1641.78 6.3002H1611.78ZM1647.62 -85.7644C1625.56 -60.1143 1611.78 -28.5444 1611.78 6.3002H1641.78C1641.78 -20.2765 1652.23 -45.1095 1670.36 -66.2058L1647.62 -85.7644ZM1691.52 -67.8005L1668.77 -87.359L1649.21 -64.6112L1671.96 -45.0527L1691.52 -67.8005ZM1835.5 -162.3C1788.82 -162.3 1745 -151.638 1708.67 -132.918L1722.42 -106.25C1754.23 -122.643 1793.29 -132.3 1835.5 -132.3V-162.3ZM1967.38 -162.3H1835.5V-132.3H1967.38V-162.3ZM1982.38 -117.3V-147.3H1952.38V-117.3H1982.38ZM1835.5 -102.3H1967.38V-132.3H1835.5V-102.3ZM1736.16 -79.5822C1763.46 -93.6491 1797.76 -102.3 1835.5 -102.3V-132.3C1793.29 -132.3 1754.23 -122.643 1722.42 -106.25L1736.16 -79.5822ZM1702.21 -112.713L1715.95 -86.0455L1742.62 -99.7867L1728.88 -126.455L1702.21 -112.713Z" fill="#CFCFAF"/>
<path d="M2371.48 1278.9H2365.4C2322.2 1278.9 2287.17 1301.75 2287.17 1329.93C2287.17 1358.11 2322.2 1380.96 2365.4 1380.96H2546.17C2589.37 1380.96 2624.4 1358.11 2624.4 1329.93C2624.4 1301.75 2589.37 1278.9 2546.17 1278.9H2540.1" stroke="#05203D" stroke-width="30" stroke-linejoin="round"/>
<path d="M1686.35 1386C1636.04 1386 1595.26 1359.49 1595.26 1326.78C1595.26 1294.07 1636.04 1267.56 1686.35 1267.56" stroke="#89C7AA" stroke-width="30" stroke-linejoin="round"/>
<path d="M2462.69 154.98C2504.9 154.98 2539.13 132.979 2539.13 105.84C2539.13 78.701 2504.9 56.7002 2462.69 56.7002H2376.32" stroke="#F6AE9F" stroke-width="30" stroke-linejoin="round"/>
<path d="M2773.64 1386V1194.38C2773.64 1156.86 2726.79 1126.44 2668.98 1126.44C2611.18 1126.44 2564.32 1156.86 2564.32 1194.38V1224.04" stroke="#89C7AA" stroke-width="30" stroke-linejoin="round"/>
<path d="M155.018 0.630312C155.018 30.9012 117.541 55.4403 71.3095 55.4403C25.0784 55.4403 -12.3984 30.9012 -12.3984 0.630312C-12.3984 -29.6406 25.0784 -54.1797 71.3095 -54.1797H235.682" stroke="#CFCFAF" stroke-width="30" stroke-linejoin="round"/>
<path d="M1066.15 -8.1902V-81.7079C1066.15 -102.69 1092.19 -119.7 1124.3 -119.7C1156.4 -119.7 1182.44 -102.69 1182.44 -81.7079V65.3275C1182.44 86.3101 1156.4 103.32 1124.3 103.32C1092.19 103.32 1066.15 86.3101 1066.15 65.3275V47.5648" stroke="#F6AE9F" stroke-width="30" stroke-linejoin="round"/>
<path d="M957.617 -108.359V82.9453C957.617 140.126 1029.2 186.481 1117.51 186.481C1205.82 186.481 1277.41 140.126 1277.41 82.9453V37.7467" stroke="#89C7AA" stroke-width="30" stroke-linejoin="round"/>
<path d="M2097.23 -54.1797H2446.06C2578.81 -54.1797 2686.42 16.0537 2686.42 102.69C2686.42 189.327 2578.81 259.56 2446.06 259.56H2341.11" stroke="#89C7AA" stroke-width="30" stroke-linejoin="round"/>
<path d="M3033.35 265.86V369.195C3033.35 413.723 2977.31 449.82 2908.17 449.82H2810.46" stroke="#05203D" stroke-width="30" stroke-linejoin="round"/>
<path d="M2334.65 429.03H2538.76C2656.28 429.03 2754.73 488.725 2780.42 568.89" stroke="#05203D" stroke-width="30"/>
<path d="M2752.32 278.838C2752.32 245.923 2793.54 219.24 2844.38 219.24C2895.22 219.24 2936.44 245.923 2936.44 278.838V322.182C2936.44 355.097 2895.22 381.78 2844.38 381.78C2793.54 381.78 2752.32 355.097 2752.32 322.182V278.838Z" stroke="#89C7AA" stroke-width="30" stroke-linejoin="round"/>
<path d="M843.267 189L843.269 -64.011C843.269 -113.555 781.66 -153.72 705.662 -153.72" stroke="#F6AE9F" stroke-width="30" stroke-linejoin="round"/>
<path d="M2145.69 186.48C2179.94 186.48 2207.71 168.428 2207.71 146.16C2207.71 123.892 2179.94 105.84 2145.69 105.84C2111.44 105.84 2083.67 123.892 2083.67 146.16C2083.67 168.428 2111.44 186.48 2145.69 186.48Z" stroke="#89C7AA" stroke-width="30" stroke-linejoin="round"/>
<path d="M2145.69 259.56C2244.16 259.56 2324 208.507 2324 145.53C2324 82.5529 2244.16 31.5 2145.69 31.5C2047.22 31.5 1967.38 82.5529 1967.38 145.53" stroke="#F6AE9F" stroke-width="30" stroke-linejoin="round"/>
<path d="M1844.31 -41.5801C1804.17 -41.5801 1771.63 -20.426 1771.63 5.66992C1771.63 31.7658 1804.17 52.9199 1844.31 52.9199C1884.45 52.9199 1916.99 31.7658 1916.99 5.66992V-41.5801" stroke="#05203D" stroke-width="30" stroke-linejoin="round"/>
<path d="M910.698 1287.72H1103.38C1142.76 1287.72 1174.69 1308.59 1174.69 1334.34C1174.69 1360.09 1142.76 1380.96 1103.38 1380.96H910.698C871.317 1380.96 839.391 1360.09 839.391 1334.34C839.391 1308.59 871.317 1287.72 910.698 1287.72Z" stroke="#CFCFAF" stroke-width="30" stroke-linejoin="round"/>
<path d="M552.55 55.4404C552.55 118.07 474.455 168.84 378.119 168.84C281.783 168.84 203.688 118.07 203.688 55.4404" stroke="#F6AE9F" stroke-width="30" stroke-linejoin="round"/>
<path d="M703.723 112.14V-26.4571C703.723 -53.5981 669.881 -75.5996 628.136 -75.5996C586.391 -75.5996 552.549 -53.5981 552.549 -26.4571V-5.00444" stroke="#05203D" stroke-width="30" stroke-linejoin="round"/>
<path d="M98.4427 201.6C127.343 201.6 150.772 186.651 150.772 168.21C150.772 149.77 127.343 134.82 98.4427 134.82C69.5419 134.82 46.1133 149.77 46.1133 168.21C46.1133 186.651 69.5419 201.6 98.4427 201.6Z" stroke="#05203D" stroke-width="30" stroke-linejoin="round"/>
<path d="M300.594 34.3038V-104.863C300.594 -131.846 334.435 -153.72 376.181 -153.72C417.926 -153.72 451.768 -131.846 451.768 -104.863V34.3038C451.768 61.2864 417.926 83.1603 376.181 83.1603C334.435 83.1603 300.594 61.2864 300.594 34.3038Z" stroke="#CFCFAF" stroke-width="30" stroke-linejoin="round"/>
<path d="M2668.98 738.051C2668.98 808.505 2757.93 865.62 2867.64 865.62C2977.35 865.62 3066.3 808.505 3066.3 738.051V601.021" stroke="#89C7AA" stroke-width="30" stroke-linejoin="round"/>
<path d="M2565.54 797.58H2555.66C2499.44 797.58 2453.85 767.964 2453.85 731.43C2453.85 694.897 2499.44 665.28 2555.66 665.28H2865.64C2921.87 665.28 2967.45 694.897 2967.45 731.43C2967.45 767.964 2921.87 797.58 2865.64 797.58H2862.6" stroke="#05203D" stroke-width="30" stroke-linejoin="round"/>
<path d="M2376.32 505.261H2501.39C2585.39 505.261 2653.48 549.263 2653.48 603.541" stroke="#89C7AA" stroke-width="30" stroke-linejoin="round"/>
<path d="M366.527 1268.82C335.464 1268.82 310.283 1252.74 310.283 1232.91C310.283 1213.08 335.464 1197 366.527 1197H426.571" stroke="#CFCFAF" stroke-width="30" stroke-linejoin="round"/>
<path d="M30.2252 1323C74.6466 1323 110.657 1299.87 110.657 1271.34C110.657 1242.81 74.6466 1219.68 30.2252 1219.68C-14.1963 1219.68 -50.207 1242.81 -50.207 1271.34C-50.207 1299.87 -14.1963 1323 30.2252 1323Z" stroke="#F6AE9F" stroke-width="30" stroke-linejoin="round"/>
<path d="M199.81 1270.08C199.81 1206.06 121.281 1154.16 24.4101 1154.16C-72.461 1154.16 -150.99 1206.06 -150.99 1270.08C-150.99 1334.1 -72.461 1386 24.4101 1386" stroke="#05203D" stroke-width="30" stroke-linejoin="round"/>
<path d="M109.688 1011.78C109.688 1017.13 109.688 1084.57 109.688 1117.62" stroke="#F6AE9F" stroke-width="30" stroke-linejoin="round"/>
<path d="M-90.9082 739.62V665.197C-90.9082 622.345 -38.7921 586.449 31.1937 577.08" stroke="#CFCFAF" stroke-width="30" stroke-linejoin="round"/>
<path d="M13.75 715.528C13.75 682.21 55.4015 655.2 106.78 655.2C158.158 655.2 199.81 682.21 199.81 715.528V856.952C199.81 890.271 158.158 917.28 106.78 917.28C55.4015 917.28 13.75 890.271 13.75 856.952V715.528Z" stroke="#89C7AA" stroke-width="30" stroke-linejoin="round"/>
<path d="M1926.16 1139.67C1926.16 1165.77 1893.73 1186.92 1853.74 1186.92C1813.75 1186.92 1781.32 1165.77 1781.32 1139.67C1781.32 1113.57 1813.75 1092.42 1853.74 1092.42H2124.37" stroke="#CFCFAF" stroke-width="30" stroke-linejoin="round"/>
<path d="M2219.34 1092.42H2302.96C2387.37 1092.42 2455.79 1137.09 2455.79 1192.21V1294.02" stroke="#CFCFAF" stroke-width="30" stroke-linejoin="round"/>
<path d="M2300.74 1225.98C2329.64 1225.98 2353.07 1211.03 2353.07 1192.59C2353.07 1174.15 2329.64 1159.2 2300.74 1159.2C2271.84 1159.2 2248.41 1174.15 2248.41 1192.59C2248.41 1211.03 2271.84 1225.98 2300.74 1225.98Z" stroke="#05203D" stroke-width="30" stroke-linejoin="round"/>
<path d="M2016.75 1305.36C2016.78 1317.96 2016.82 1330.56 2016.86 1343.16" stroke="#89C7AA" stroke-width="30" stroke-linejoin="round"/>
<path d="M2016.75 1231.02C2016.78 1243.62 2016.82 1256.22 2016.86 1268.82" stroke="#CFCFAF" stroke-width="30" stroke-linejoin="round"/>
<path d="M1654.32 1166.76C1654.35 1179.36 1654.39 1191.96 1654.43 1204.56" stroke="#89C7AA" stroke-width="30" stroke-linejoin="round"/>
<path d="M1654.32 1092.42C1654.35 1105.02 1654.39 1117.62 1654.43 1130.22" stroke="#F6AE9F" stroke-width="30" stroke-linejoin="round"/>
<path d="M1538.03 1092.42C1538.07 1105.02 1538.1 1117.62 1538.14 1130.22" stroke="#CFCFAF" stroke-width="30" stroke-linejoin="round"/>
<path d="M134.828 510.301C134.865 522.901 134.902 535.501 134.939 548.101" stroke="#F6AE9F" stroke-width="30" stroke-linejoin="round"/>
<path d="M39.859 417.061C39.8959 429.661 39.9328 442.261 39.9698 454.861" stroke="#CFCFAF" stroke-width="30" stroke-linejoin="round"/>
<path d="M1419.8 69.3008C1419.84 81.9008 1419.88 94.5008 1419.92 107.101" stroke="#89C7AA" stroke-width="30" stroke-linejoin="round"/>
<path d="M1419.8 -2.51953C1419.84 10.0805 1419.88 22.6805 1419.92 35.2805" stroke="#05203D" stroke-width="30" stroke-linejoin="round"/>
<path d="M2057.45 330.12C2057.49 342.72 2057.52 355.32 2057.56 367.92" stroke="#05203D" stroke-width="30" stroke-linejoin="round"/>
<path d="M2195.05 330.12C2195.09 342.72 2195.13 355.32 2195.17 367.92" stroke="#05203D" stroke-width="30" stroke-linejoin="round"/>
<path d="M2332.66 330.12C2332.7 342.72 2332.74 355.32 2332.77 367.92" stroke="#05203D" stroke-width="30" stroke-linejoin="round"/>
</g>
<defs>
<clipPath id="clip0_3_224">
<rect width="2879" height="1695" fill="white"/>
</clipPath>
</defs>
</svg>
