<svg width="314" height="232" viewBox="0 0 314 232" fill="none" xmlns="http://www.w3.org/2000/svg">
<g clip-path="url(#clip0_6_391)">
<path d="M30.077 183C24.589 183 20 187.486 20 192.969C20 197.755 23.392 201.742 27.882 202.739V195.163H26.186V192.87H27.882V192.072C27.882 191.175 27.982 190.377 28.181 189.979C28.381 189.48 28.78 189.181 29.279 188.882C29.777 188.583 30.476 188.483 31.374 188.483C32.272 188.483 33.07 188.583 33.868 188.882L33.469 190.976C32.97 190.876 32.471 190.776 32.072 190.776C31.673 190.776 31.274 190.876 31.174 191.075C30.975 191.275 30.875 191.673 30.875 192.272V193.069H33.07V195.462H30.875V203.138C35.963 202.739 40.054 198.452 40.054 193.169C40.054 187.486 35.564 183 30.077 183Z" fill="#2CAAF2"/>
<path fill-rule="evenodd" clip-rule="evenodd" d="M236.978 199C231.49 199 227 203.486 227 208.969C227 214.452 231.49 218.938 236.978 218.938C242.465 218.938 246.955 214.452 246.955 208.969C246.955 203.486 242.465 199 236.978 199ZM243.563 205.18C243.263 205.579 242.864 205.978 242.465 206.277C242.365 206.377 242.365 206.377 242.365 206.476C242.365 208.371 241.767 210.165 240.57 211.561C239.372 212.956 237.975 213.754 236.179 214.053C234.284 214.352 232.588 214.053 230.991 213.056C230.991 213.056 230.991 213.056 230.892 213.056C231.889 213.156 232.787 212.956 233.685 212.558C234.084 212.358 234.384 212.159 234.783 211.86C234.384 211.86 233.984 211.76 233.685 211.561C233.087 211.262 232.687 210.763 232.388 210.165C232.288 210.065 232.288 210.065 232.488 210.065C232.887 210.065 233.186 210.065 233.486 209.966C233.286 209.866 233.087 209.866 232.887 209.766C231.989 209.268 231.59 208.57 231.49 207.573C231.49 207.473 231.49 207.473 231.59 207.473C231.889 207.673 232.189 207.673 232.588 207.772C232.388 207.573 232.288 207.473 232.189 207.374C231.49 206.576 231.291 205.38 231.789 204.383C231.889 204.283 231.889 204.283 231.989 204.383C233.186 205.779 234.783 206.676 236.579 206.975C236.778 206.975 236.978 206.975 237.177 207.075C237.277 207.075 237.277 207.075 237.277 206.975C237.077 205.878 237.576 204.782 238.574 204.184C239.572 203.585 240.869 203.785 241.667 204.582C241.767 204.682 241.867 204.682 241.966 204.682C242.465 204.582 242.964 204.383 243.363 204.184C243.363 204.184 243.463 204.184 243.463 204.084C243.263 204.682 242.864 205.18 242.365 205.579C242.864 205.48 243.363 205.38 243.762 205.18C243.662 205.081 243.662 205.081 243.563 205.18Z" fill="#2CAAF2"/>
<g opacity="0.23">
<path opacity="0.23" d="M57.0713 137.54C57.0713 137.141 57.0713 136.642 57.0713 136.244L7.38477 185.889C7.78387 185.889 8.28277 185.889 8.68187 185.889L57.0713 137.54Z" fill="url(#paint0_linear_6_391)"/>
<path opacity="0.23" d="M56.8724 131.36C56.8724 130.961 56.7726 130.562 56.7726 130.164L1.29883 185.591C1.69793 185.591 2.09703 185.691 2.49613 185.691L56.8724 131.36Z" fill="url(#paint1_linear_6_391)"/>
<path opacity="0.23" d="M-28.6309 170.938C-28.5312 171.038 -28.4314 171.138 -28.3316 171.237C-28.2319 171.337 -28.1321 171.437 -28.0323 171.536L42.7067 100.856C42.607 100.756 42.5072 100.657 42.4074 100.557C42.3076 100.457 42.2079 100.358 42.1081 100.258L-28.6309 170.938Z" fill="url(#paint2_linear_6_391)"/>
<path opacity="0.23" d="M56.3757 144.618C56.4755 144.12 56.5752 143.621 56.5752 143.123L14.2715 185.391C14.7704 185.292 15.2692 185.192 15.7681 185.192L56.3757 144.618Z" fill="url(#paint3_linear_6_391)"/>
<path opacity="0.23" d="M56.0752 125.778C55.9754 125.379 55.9754 125.08 55.8757 124.682L-4.08789 184.595C-3.78859 184.695 -3.38949 184.795 -2.99039 184.795L56.0752 125.778Z" fill="url(#paint4_linear_6_391)"/>
<path opacity="0.23" d="M48.4926 163.859L35.123 177.218C37.7171 175.423 40.2114 173.43 42.5062 171.137C44.7012 168.944 46.7964 166.451 48.4926 163.859Z" fill="url(#paint5_linear_6_391)"/>
<path opacity="0.23" d="M54.7766 120.692C54.6768 120.393 54.5771 120.094 54.4773 119.695L-9.07812 183.198C-8.77883 183.297 -8.47943 183.397 -8.08033 183.497L54.7766 120.692Z" fill="url(#paint6_linear_6_391)"/>
<path opacity="0.23" d="M-25.3398 174.027C-25.1403 174.227 -24.841 174.426 -24.6414 174.626L45.7983 104.245C45.5987 104.045 45.3992 103.746 45.1996 103.547L-25.3398 174.027Z" fill="url(#paint7_linear_6_391)"/>
<path opacity="0.23" d="M48.4921 107.832C48.2926 107.533 48.1927 107.334 47.9931 107.035L-21.748 176.718C-21.4487 176.917 -21.2492 177.117 -20.9498 177.216L48.4921 107.832Z" fill="url(#paint8_linear_6_391)"/>
<path opacity="0.23" d="M50.8843 111.82C50.6848 111.521 50.585 111.322 50.3855 111.023L-17.959 179.31C-17.6597 179.51 -17.4601 179.609 -17.1608 179.809L50.8843 111.82Z" fill="url(#paint9_linear_6_391)"/>
<path opacity="0.23" d="M52.9842 116.107C52.8844 115.808 52.6849 115.509 52.5851 115.209L-13.6641 181.403C-13.3648 181.503 -13.0655 181.702 -12.7662 181.802L52.9842 116.107Z" fill="url(#paint10_linear_6_391)"/>
<path opacity="0.23" d="M53.9791 153.392C54.1787 152.694 54.478 152.096 54.6776 151.398L22.6504 183.398C23.3488 183.199 23.9475 183 24.6459 182.701L53.9791 153.392Z" fill="url(#paint11_linear_6_391)"/>
<path opacity="0.23" d="M27.7382 90.387C27.4389 90.2874 27.1395 90.088 26.8402 89.9883L-38.9102 155.684C-38.8104 155.983 -38.6108 156.282 -38.5111 156.581L27.7382 90.387Z" fill="url(#paint12_linear_6_391)"/>
<path opacity="0.23" d="M32.0307 92.4809C31.7314 92.2815 31.5318 92.1818 31.2325 91.9824L-36.7129 159.871C-36.5133 160.17 -36.4136 160.37 -36.214 160.669L32.0307 92.4809Z" fill="url(#paint13_linear_6_391)"/>
<path opacity="0.23" d="M35.92 94.9712C35.6207 94.7718 35.4211 94.5724 35.1218 94.4727L-34.4199 163.957C-34.2204 164.256 -34.1206 164.455 -33.9211 164.754L35.92 94.9712Z" fill="url(#paint14_linear_6_391)"/>
<path opacity="0.23" d="M39.4133 97.7642C39.2138 97.5648 38.9145 97.3654 38.7149 97.166L-31.625 167.547C-31.4255 167.746 -31.2259 168.045 -31.0264 168.245L39.4133 97.7642Z" fill="url(#paint15_linear_6_391)"/>
<path opacity="0.23" d="M23.1515 88.4925C22.8522 88.3928 22.5529 88.2931 22.1538 88.1934L-40.7031 150.998C-40.6034 151.297 -40.5036 151.596 -40.4038 151.995L23.1515 88.4925Z" fill="url(#paint16_linear_6_391)"/>
<path opacity="0.23" d="M6.6869 85.9004C6.2878 85.9004 5.789 85.9004 5.3899 85.9004L-43 134.249C-43 134.648 -43 135.147 -43 135.545L6.6869 85.9004Z" fill="url(#paint17_linear_6_391)"/>
<path opacity="0.23" d="M18.2609 87.0978C17.9616 86.9981 17.5625 86.8984 17.1634 86.8984L-42.002 146.014C-41.9022 146.413 -41.9022 146.712 -41.8024 147.111L18.2609 87.0978Z" fill="url(#paint18_linear_6_391)"/>
<path opacity="0.23" d="M12.7708 86.1993C12.3717 86.1993 11.9726 86.0996 11.5735 86.0996L-42.8027 140.431C-42.8027 140.83 -42.703 141.228 -42.703 141.627L12.7708 86.1993Z" fill="url(#paint19_linear_6_391)"/>
</g>
<path d="M21.0526 130.262C13.7692 135.147 9.57882 159.271 23.7465 159.77C33.5243 160.069 37.3156 151.296 33.7238 148.605C24.5447 141.726 13.7692 165.851 24.5447 170.736C29.6331 173.029 34.7216 169.34 40.3088 164.954C48.7895 158.075 58.168 149.402 69.742 157.377" stroke="#3F3D56" stroke-width="2" stroke-miterlimit="10"/>
<path d="M198.453 205.327C198.453 207.221 192.068 208.816 184.186 208.816C176.304 208.816 169.918 207.221 169.918 205.327C169.918 203.433 176.304 201.838 184.186 201.838C192.068 201.838 198.453 203.433 198.453 205.327Z" fill="#D4ECFF"/>
<path d="M117.236 218.985C117.236 220.879 110.851 222.474 102.969 222.474C95.0872 222.474 88.7012 220.879 88.7012 218.985C88.7012 217.091 95.0872 215.496 102.969 215.496C110.851 215.496 117.236 217.091 117.236 218.985Z" fill="#D4ECFF"/>
<path d="M226.686 197.852H64.6545C58.9675 197.852 53.3801 197.055 47.9924 195.36L22.8496 187.684H271.085L242.051 195.759C236.963 197.155 231.874 197.852 226.686 197.852Z" fill="#D4ECFF"/>
<path d="M258.814 51.3067C255.621 51.0076 250.932 51.1073 244.347 52.3036C240.655 52.9018 237.462 55.0949 235.567 58.285C232.174 63.8676 226.887 72.8397 225.789 75.9301C225.789 75.9301 216.41 74.4347 211.122 71.2447L208.828 75.9301C208.828 75.9301 214.215 79.6186 229.979 84.8025C229.979 84.8025 234.669 77.7245 237.163 70.8459C237.163 70.8459 236.664 74.6341 238.46 81.413C239.857 86.7963 236.564 107.632 236.564 107.632L270.986 106.435L268.193 85.6997L272.383 80.3164C273.58 78.8211 274.079 76.8273 273.78 74.9332C273.181 70.9456 271.585 63.8676 267.893 57.1884C266.097 53.799 262.705 51.6058 258.814 51.3067Z" fill="#D85C1C"/>
<path d="M265.001 76.7297L263.704 67.957C263.704 67.957 262.008 79.521 261.309 80.9167L265.001 76.7297Z" fill="#B14800"/>
<path d="M252.03 87.9931C250.235 88.5912 245.745 90.0865 246.144 90.9838C246.343 91.4822 249.536 90.2859 249.935 90.6847C250.235 90.9838 249.037 92.6785 247.042 93.7751C245.445 94.5726 244.348 94.4729 244.248 95.1707C244.148 96.1676 248.838 96.0679 250.035 95.8686C250.733 95.7689 252.13 95.4698 253.228 94.5726C254.425 93.5757 254.724 92.9776 255.323 92.3794C256.72 91.0835 258.216 90.1862 258.216 90.1862L255.922 86.398C255.922 86.2984 253.028 87.5943 252.03 87.9931Z" fill="#E7D1AD"/>
<path d="M247.242 45.4257L247.941 53.7996C247.941 53.7996 252.431 57.6875 256.422 53.3011L254.227 43.1328L247.242 45.4257Z" fill="#E0BD82"/>
<path d="M259.515 22.9963C261.61 25.0898 263.306 28.1802 263.306 32.5666C263.306 39.0464 255.624 48.1181 248.64 48.1181C242.454 48.1181 237.465 41.738 237.465 33.9622C237.465 27.9808 240.458 22.8967 244.549 20.8032C250.436 17.8125 256.721 20.205 259.515 22.9963Z" fill="#E7CB9E"/>
<path d="M244.847 36.752C244.847 36.752 244.748 37.0511 244.648 37.3502C244.548 37.7489 244.448 38.2474 244.348 38.6461C244.348 38.8455 244.348 39.1446 244.348 39.2443C244.448 39.4437 244.448 39.5433 244.648 39.643C244.748 39.643 244.748 39.7427 244.847 39.7427C244.947 39.7427 244.947 39.8424 245.047 39.8424C245.147 39.8424 245.246 39.9421 245.246 39.9421C245.246 39.9421 245.147 39.9421 245.047 39.9421C244.947 39.9421 244.748 39.9421 244.548 39.8424C244.448 39.8424 244.348 39.7427 244.249 39.643C244.149 39.5433 244.049 39.4437 243.949 39.344C243.85 39.2443 243.85 39.0449 243.85 38.9452C243.85 38.8455 243.85 38.6461 243.85 38.5465C243.949 37.9483 244.149 37.5496 244.348 37.1508C244.648 36.8517 244.847 36.752 244.847 36.752Z" fill="#E0B695"/>
<path d="M241.653 38.1503C241.653 38.7484 240.955 39.2469 240.057 39.2469C239.159 39.2469 238.461 38.7484 238.461 38.1503C238.461 37.5522 239.159 37.0537 240.057 37.0537C240.955 36.954 241.653 37.4525 241.653 38.1503Z" fill="#E0AB82"/>
<path d="M253.525 38.1495C253.525 38.8473 252.628 39.4455 251.63 39.4455C250.532 39.4455 249.734 38.8473 249.734 38.1495C249.734 37.4517 250.632 36.8535 251.63 36.8535C252.628 36.9532 253.525 37.4517 253.525 38.1495Z" fill="#E0AB82"/>
<path d="M249.436 196.158C264.92 196.158 277.473 193.971 277.473 191.273C277.473 188.576 264.92 186.389 249.436 186.389C233.952 186.389 221.4 188.576 221.4 191.273C221.4 193.971 233.952 196.158 249.436 196.158Z" fill="#D4ECFF"/>
<path d="M269.69 182.1C269.69 182.1 271.287 182.399 271.087 184.891C270.888 187.284 270.987 190.574 270.987 190.574L270.289 190.873C270.289 190.873 269.89 187.982 269.69 187.882C269.491 187.782 268.094 190.873 266.497 191.471C264.901 192.169 260.81 193.465 259.713 192.268C258.416 190.972 261.309 189.776 262.706 188.979C264.103 188.181 269.69 182.1 269.69 182.1Z" fill="#393939"/>
<path d="M263.904 174.325C263.904 174.325 265.6 181.004 264.802 183.895C264.004 186.786 261.809 189.179 261.509 189.777C261.31 190.375 264.503 189.976 265.7 188.979C266.897 187.983 269.89 182.799 269.691 182.101C269.491 181.403 268.992 176.718 269.192 173.229L263.904 174.325Z" fill="#E7CB9E"/>
<path d="M242.849 182.799C242.849 182.799 244.445 183.298 243.847 185.69C243.248 188.083 242.949 191.373 242.949 191.373L242.25 191.572C242.25 191.572 242.25 188.581 242.051 188.581C241.851 188.482 240.155 191.373 238.459 191.771C236.763 192.27 232.473 192.968 231.475 191.572C230.377 190.077 233.371 189.379 234.867 188.681C236.463 188.083 242.849 182.799 242.849 182.799Z" fill="#393939"/>
<path d="M238.159 174.324C238.159 174.324 238.957 181.203 237.76 183.895C236.563 186.586 234.068 188.779 233.769 189.278C233.47 189.776 236.762 189.876 238.059 189.079C239.356 188.281 243.048 183.496 242.948 182.798C242.848 182.1 242.948 177.415 243.647 174.025L238.159 174.324Z" fill="#E7CB9E"/>
<path d="M236.663 107.631C236.663 107.631 233.77 136.741 233.371 146.51C232.972 155.084 237.063 181.701 237.063 181.701L244.047 181.103C244.047 181.103 244.845 155.582 246.84 147.108C248.337 140.629 252.827 121.189 252.827 121.189C252.827 121.189 255.121 139.632 255.92 145.812C257.017 154.585 262.804 181.601 262.804 181.601L270.985 181.202C270.985 181.202 268.79 153.887 268.89 144.816C268.99 135.245 271.085 106.436 271.085 106.436L236.663 107.631Z" fill="#2638A3"/>
<path d="M236.663 107.633C236.663 107.633 233.77 136.742 233.371 146.512C232.972 155.085 237.063 181.702 237.063 181.702L244.047 181.104C244.047 181.104 244.845 155.583 246.84 147.11C248.337 140.63 252.827 121.19 252.827 121.19C252.827 121.19 248.836 116.306 247.539 107.234L236.663 107.633Z" fill="#12259A"/>
<path d="M264.401 33.2651C264.401 33.2651 262.904 38.0502 255.421 33.6639C247.938 29.3772 243.249 24.1933 243.249 24.1933C243.249 24.1933 240.854 30.4738 236.963 32.966C236.963 32.966 237.163 28.5797 237.861 26.2868C238.659 23.7946 240.954 18.511 248.836 18.212C266.695 17.6138 264.401 33.2651 264.401 33.2651Z" fill="#424242"/>
<path d="M263.206 29.8751C263.206 29.8751 267.297 27.5822 265.7 22.8968C264.104 18.2114 257.918 15.7191 254.725 19.9061" fill="#424242"/>
<path d="M247.842 33.7606C247.842 34.3587 248.141 34.7575 248.54 34.7575C248.94 34.7575 249.239 34.259 249.239 33.7606C249.239 33.1624 248.94 32.7637 248.54 32.7637C248.141 32.7637 247.842 33.1624 247.842 33.7606Z" fill="#424242"/>
<path d="M241.156 34.161C241.156 34.7591 241.456 35.1579 241.855 35.1579C242.254 35.1579 242.553 34.6594 242.553 34.161C242.553 33.5628 242.254 33.1641 241.855 33.1641C241.456 33.1641 241.156 33.5628 241.156 34.161Z" fill="#424242"/>
<path d="M248.537 41.4395C248.537 41.4395 245.344 42.9348 242.75 41.6389C242.75 43.0345 246.043 45.6264 248.537 41.4395Z" fill="#E5F1FF"/>
<path d="M258.217 37.2522C257.319 39.8441 258.317 42.4361 260.312 43.0342C262.308 43.6324 264.702 41.9376 265.5 39.3457C266.398 36.7538 265.401 34.1618 263.405 33.5637C261.41 32.9656 259.015 34.6603 258.217 37.2522Z" fill="black"/>
<path d="M260.713 41.3398C260.713 41.3398 257.021 46.8227 249.338 45.4271" stroke="black" stroke-miterlimit="10" stroke-linecap="round"/>
<path d="M249.537 44.6287C249.138 44.529 248.739 44.8281 248.639 45.2268C248.539 45.6256 248.839 46.0243 249.238 46.124C249.637 46.2237 250.036 45.9247 250.136 45.5259C250.136 45.1271 249.936 44.7284 249.537 44.6287Z" fill="black"/>
<path d="M263.605 36.5531C263.605 36.5531 265.8 16.8145 250.135 16.7148C246.544 16.7148 240.158 18.0108 238.262 24.2913" stroke="black" stroke-miterlimit="10" stroke-linecap="round"/>
<path d="M233.473 72.5397L157.845 30.6701C149.963 26.3834 140.484 26.3834 132.602 30.6701L56.8744 72.5397C53.5819 74.3342 51.2871 77.923 51.2871 81.9106V187.183C51.2871 193.065 56.0762 197.949 62.0627 197.949H228.384C234.271 197.949 239.16 193.164 239.16 187.183V82.0103C239.16 77.923 236.865 74.3342 233.473 72.5397Z" fill="#183D85"/>
<path d="M217.606 171.635H72.7363V36.2559C72.7363 29.477 78.2243 23.9941 85.0083 23.9941H205.235C212.019 23.9941 217.507 29.477 217.507 36.2559V171.635H217.606Z" fill="#D4ECFF"/>
<path d="M199.347 45.8223H91.1934V46.6205H199.347V45.8223Z" fill="white"/>
<path d="M199.347 57.6855H91.1934V58.4837H199.347V57.6855Z" fill="white"/>
<path d="M199.347 69.6484H91.1934V70.4466H199.347V69.6484Z" fill="white"/>
<path d="M199.347 81.6113H91.1934V82.4095H199.347V81.6113Z" fill="white"/>
<path d="M199.347 93.5762H91.1934V94.3744H199.347V93.5762Z" fill="white"/>
<path d="M199.347 105.438H91.1934V106.236H199.347V105.438Z" fill="white"/>
<path d="M199.347 117.4H91.1934V118.199H199.347V117.4Z" fill="white"/>
<path d="M199.347 129.363H91.1934V130.161H199.347V129.363Z" fill="#D4ECFF"/>
<path d="M223.396 93.2759L144.376 172.23C144.176 172.43 143.877 172.43 143.777 172.23L64.6567 93.2759C61.1647 89.7868 56.3755 87.793 51.2871 87.793V187.184C51.2871 193.065 56.0762 197.95 62.0627 197.95H228.384C234.271 197.95 239.16 193.165 239.16 187.184V87.793H236.765C231.677 87.793 226.888 89.7868 223.396 93.2759Z" fill="#2CAAF2"/>
<path d="M171.913 144.717L144.276 172.331C144.076 172.53 143.777 172.53 143.677 172.331L116.439 145.116L51.2871 183.496V187.284C51.2871 193.166 56.0762 198.051 62.0627 198.051H228.384C234.271 198.051 239.16 193.266 239.16 187.284V183.895L171.913 144.717Z" fill="#E7E7E6"/>
<path d="M239.16 187.183V183.993L157.845 139.133C149.963 134.846 140.484 134.846 132.602 139.133L51.2871 184.093V187.283C51.2871 193.165 56.0762 198.05 62.0627 198.05H228.384C234.271 197.95 239.16 193.165 239.16 187.183Z" fill="#2CAAF2"/>
<path d="M197.853 185.287C197.853 187.281 198.152 183.991 204.338 183.991C209.028 183.991 204.737 196.153 197.354 196.552C197.354 196.552 195.758 197.051 196.057 199.044C196.356 201.038 209.527 196.353 209.527 185.487C209.527 178.309 197.853 179.705 197.853 185.287Z" fill="#FEFEFE"/>
<path d="M166.424 178.012C166.424 178.012 167.322 206.324 185.181 206.324C201.344 206.324 203.14 178.012 203.14 178.012H166.424Z" fill="#FEFEFE"/>
<path d="M171.911 181.2C170.115 181 168.818 180.701 167.92 180.402C168.618 187.281 171.811 206.521 185.081 206.421C185.979 206.421 186.777 206.322 187.575 206.122C175.702 203.929 172.709 188.078 171.911 181.2Z" fill="#EAF4FF"/>
<path d="M203.14 178.01C203.14 179.605 194.959 180.901 184.782 180.901C174.605 180.901 166.424 179.605 166.424 178.01C166.424 176.415 174.605 175.119 184.782 175.119C194.859 175.119 203.14 176.415 203.14 178.01Z" fill="#EAF4FF"/>
<path d="M184.781 180.304C193.817 180.304 201.143 179.278 201.143 178.012C201.143 176.745 193.817 175.719 184.781 175.719C175.744 175.719 168.418 176.745 168.418 178.012C168.418 179.278 175.744 180.304 184.781 180.304Z" fill="#FEFEFE"/>
<path d="M172.01 179.507C175.003 180.006 179.593 180.305 184.681 180.305C189.769 180.305 194.359 180.006 197.352 179.507C194.359 179.009 189.769 178.71 184.681 178.71C179.593 178.61 175.003 178.909 172.01 179.507Z" fill="#606060"/>
<path d="M72.4378 55.992C55.5757 57.288 39.3127 74.0359 36.12 77.4253C32.8275 80.7151 16.9636 97.8617 16.4647 114.709C16.1654 124.579 22.9499 134.149 27.0406 137.339L45.9975 113.513C45.9975 113.513 42.9045 110.423 36.2198 108.628C36.2198 108.628 37.9159 100.055 48.1925 89.2884C57.8708 79.12 67.2488 76.1294 67.2488 76.1294C69.4438 82.7089 72.6368 85.5999 72.6368 85.5999L95.5848 65.4626C92.0928 61.5747 82.2148 55.1945 72.4378 55.992Z" fill="#65C1F6"/>
<path d="M45.7995 113.314L42.4072 110.822C40.2122 109.127 34.1261 113.015 28.9379 119.694C23.7497 126.374 21.3551 133.152 23.5501 134.847L26.9424 137.339L45.7995 113.314Z" fill="#515151"/>
<path d="M40.412 128.466C35.2238 135.146 29.2374 139.034 26.9427 137.339C24.7477 135.644 27.1422 128.766 32.3304 122.186C37.5186 115.507 43.505 111.619 45.7997 113.314C47.9947 115.008 45.6002 121.887 40.412 128.466Z" fill="#99D2FF"/>
<path d="M27.0409 137.343C27.0409 137.343 26.9411 137.243 26.7416 137.044C26.6418 136.944 26.5421 136.844 26.4423 136.645C26.3425 136.445 26.2427 136.246 26.143 136.047C25.9434 135.548 25.9434 135.05 25.9434 134.352C25.9434 133.654 26.0432 132.956 26.3425 132.159C26.5421 131.361 26.8414 130.564 27.2405 129.667C27.5398 128.769 28.0387 127.972 28.4378 127.075C28.9366 126.177 29.4355 125.28 30.0341 124.383C30.6327 123.486 31.2314 122.688 31.9298 121.791C32.6282 120.994 33.3266 120.096 34.025 119.398C34.7234 118.601 35.5216 117.903 36.22 117.205C36.9184 116.507 37.7166 115.909 38.5148 115.311C39.2132 114.713 40.0114 114.314 40.7098 113.916C41.4082 113.517 42.1066 113.218 42.7053 113.018C43.3039 112.819 43.9026 112.719 44.4014 112.719C44.601 112.719 44.9003 112.719 45 112.819C45.1996 112.919 45.2994 112.919 45.3992 113.018C45.2994 112.919 45.0998 112.919 45 112.919C44.8005 112.919 44.601 112.919 44.4014 112.919C43.9026 112.919 43.4037 113.118 42.8051 113.317C42.2064 113.616 41.6078 113.916 40.9094 114.314C40.211 114.713 39.5125 115.212 38.9139 115.81C38.2155 116.408 37.5171 117.006 36.8187 117.704C36.1203 118.402 35.4218 119.099 34.7234 119.897C34.025 120.694 33.3266 121.492 32.728 122.289C32.1293 123.087 31.4309 123.984 30.8323 124.782C30.2337 125.679 29.7348 126.476 29.2359 127.374C28.7371 128.271 28.2382 129.068 27.9389 129.866C27.5398 130.663 27.2405 131.461 26.9412 132.159C26.6418 132.857 26.5421 133.554 26.4423 134.252C26.3425 134.85 26.3425 135.449 26.4423 135.847C26.4423 136.047 26.542 136.246 26.6418 136.445C26.7416 136.645 26.7416 136.744 26.8414 136.844C26.9412 137.243 27.0409 137.343 27.0409 137.343Z" fill="#2CAAF2"/>
<path d="M95.5853 65.562L92.6913 62.4716C90.7963 60.3781 84.2113 63.1694 77.8253 68.6524C71.5403 74.235 67.8483 80.4157 69.7443 82.6089L72.6373 85.6993L95.5853 65.562Z" fill="#515151"/>
<path d="M87.5036 79.4184C81.2176 85.0011 74.5326 87.7924 72.6366 85.5992C70.7416 83.5057 74.3326 77.2253 80.7186 71.6426C87.0046 66.06 93.6886 63.2687 95.5846 65.4619C97.4806 67.6551 93.8886 73.9355 87.5036 79.4184Z" fill="#99D2FF"/>
<path d="M72.7394 85.6977C72.7394 85.6977 72.6394 85.598 72.5394 85.3986C72.4394 85.2989 72.4394 85.1992 72.3404 84.9998C72.2404 84.8004 72.2404 84.6011 72.2404 84.4017C72.1404 83.9033 72.2404 83.3051 72.4394 82.707C72.6394 82.1088 72.8384 81.3113 73.2384 80.6135C73.6374 79.9157 74.0364 79.1181 74.5354 78.3206C75.0334 77.5231 75.6324 76.7256 76.2314 75.9281C76.8294 75.1306 77.5284 74.333 78.3264 73.6352C79.0244 72.8377 79.8234 72.1399 80.6214 71.442C81.4194 70.7442 82.2174 70.0464 83.1154 69.4482C83.9134 68.8501 84.8114 68.252 85.7094 67.6538C86.6074 67.1554 87.4054 66.6569 88.3034 66.2582C89.1014 65.8594 89.9994 65.5603 90.6984 65.2613C91.4964 64.9622 92.1944 64.8625 92.8934 64.7628C93.5914 64.6631 94.1904 64.6631 94.5894 64.8625C94.7894 64.9622 94.9884 64.9622 95.1884 65.0619C95.3874 65.1616 95.4874 65.2613 95.5874 65.361C95.7864 65.5603 95.8864 65.66 95.8864 65.66C95.8864 65.66 95.7864 65.5604 95.5874 65.4607C95.4874 65.361 95.3874 65.361 95.1884 65.2613C94.9884 65.1616 94.7894 65.1616 94.5894 65.1616C94.1904 65.0619 93.5914 65.1616 92.9934 65.2613C92.3944 65.361 91.6964 65.66 90.9974 65.9591C90.2994 66.2582 89.5014 66.6569 88.7024 67.0557C87.9044 67.4544 87.1064 68.0526 86.3084 68.551C85.5104 69.0495 84.7114 69.7473 83.8134 70.3454C83.0154 70.9436 82.2174 71.6414 81.4194 72.3392C80.6214 73.0371 79.8234 73.7349 79.1244 74.4327C78.4264 75.1306 77.7274 75.9281 77.0294 76.6259C76.4304 77.4234 75.7324 78.1212 75.2334 78.8191C74.7344 79.5169 74.2354 80.2147 73.8364 80.9126C73.4374 81.6104 73.1384 82.2085 72.9384 82.8067C72.7394 83.4048 72.6394 83.9033 72.6394 84.4017C72.6394 84.6011 72.6394 84.8004 72.7394 84.9998C72.7394 85.1992 72.8384 85.2989 72.8384 85.3986C72.6394 85.4983 72.7394 85.6977 72.7394 85.6977Z" fill="#2CAAF2"/>
<path d="M18.7598 106.234C18.7598 106.234 30.0341 74.9319 61.7615 60.0781C61.7615 60.0781 36.5193 71.6421 18.7598 106.234Z" fill="#2CAAF2"/>
<path d="M66.9498 75.1326C66.9498 75.1326 57.9698 76.2292 44.7998 88.192C35.5209 96.6656 31.1309 108.528 31.1309 108.528C32.3282 108.229 33.725 108.329 34.8225 108.429C44.7998 82.8088 67.0488 75.4317 66.9498 75.1326Z" fill="#515151"/>
<path d="M52.6847 33.2656C52.7845 33.9634 52.984 34.5616 53.1836 35.06C53.3831 35.4588 53.4829 35.8575 53.6825 36.0569C53.882 36.2563 54.0816 36.356 54.2811 36.356C54.4806 36.356 54.7799 36.2563 54.9795 36.1566C55.3786 35.9572 55.7777 35.4588 55.9772 34.9603C56.1768 34.3622 56.2766 33.6643 56.1768 32.8668C56.077 32.0693 55.9772 31.1721 55.6779 30.1752C55.3786 29.1783 54.9795 28.1814 54.4806 27.1845C53.882 25.9882 53.1836 25.091 52.3854 24.2935C51.5872 23.5957 50.6893 22.9976 49.7913 22.6985C48.8934 22.3994 47.8956 22.2997 46.7981 22.4991C45.8004 22.5988 44.7029 22.9976 43.6054 23.5957C42.1088 24.3932 40.9115 25.4898 40.0136 26.7858C39.1156 28.0817 38.517 29.5771 38.1179 31.1721C37.8186 32.7671 37.8186 34.4619 38.1179 36.2563C38.4172 38.0507 39.0158 39.8451 39.9138 41.5398C40.712 43.0352 41.6099 44.2315 42.6077 45.2284C43.6054 46.1256 44.7029 46.8234 45.8004 47.2222C46.9977 47.6209 48.195 47.7206 49.3922 47.6209C50.6893 47.4215 51.8865 47.0228 53.1836 46.3249C53.9818 45.9262 54.78 45.4277 55.3786 44.9293C55.9772 44.4308 56.5759 44.0321 57.075 43.6333C57.574 43.2346 57.973 42.8358 58.272 42.437C58.571 42.0383 58.771 41.7392 58.97 41.4401C59.17 41.1411 59.469 40.842 59.669 40.7423C59.868 40.6426 60.068 40.5429 60.267 40.5429C60.467 40.5429 60.667 40.5429 60.866 40.6426C61.066 40.7423 61.165 40.842 61.365 40.9417L62.462 42.138C62.063 42.8358 61.664 43.5336 61.165 44.1318C60.667 44.8296 60.068 45.4277 59.469 46.1256C58.871 46.8234 58.072 47.4215 57.274 48.0197C56.4761 48.6178 55.5781 49.2159 54.5804 49.7144C52.7845 50.7113 50.9886 51.2097 49.1927 51.4091C47.3968 51.6085 45.8004 51.4091 44.204 50.9107C42.6077 50.4122 41.1111 49.515 39.814 48.3187C38.4172 47.1225 37.3197 45.5274 36.322 43.733C35.5238 42.3374 35.0249 40.842 34.6258 39.3467C34.2267 37.8513 34.127 36.356 34.127 34.8606C34.127 33.3653 34.3265 31.8699 34.6258 30.4743C35.0249 29.0786 35.5238 27.683 36.2222 26.387C36.9206 25.091 37.8186 23.9944 38.8163 22.8979C39.814 21.901 41.0113 21.0038 42.3083 20.3059C43.7052 19.5084 45.2018 19.1096 46.6983 18.9103C48.1949 18.7109 49.6915 18.9103 51.0884 19.309C52.4852 19.7078 53.7822 20.4056 54.9795 21.4025C56.1768 22.3994 57.175 23.6954 58.072 25.2904C58.871 26.6861 59.37 28.1814 59.569 29.6768C59.868 31.1721 59.868 32.5678 59.569 33.8637C59.37 35.1597 58.871 36.356 58.172 37.4526C57.474 38.5491 56.5759 39.3467 55.4784 39.9448C55.179 40.1442 54.7799 40.2439 54.4806 40.3436C54.1813 40.4432 53.7822 40.4432 53.4829 40.4432C53.1836 40.4432 52.7845 40.3436 52.4852 40.1442C52.1858 39.9448 51.7868 39.7454 51.4874 39.4464C51.1881 40.5429 50.6893 41.5398 50.1904 42.2377C49.5918 42.9355 48.9931 43.5336 48.1949 43.9324C47.5963 44.2315 46.9977 44.4308 46.399 44.4308C45.8004 44.4308 45.3015 44.3311 44.8027 44.1318C44.3038 43.9324 43.8049 43.6333 43.4059 43.1349C43.0068 42.7361 42.6077 42.138 42.3083 41.5398C41.9093 40.842 41.6099 40.0445 41.4104 39.247C41.2108 38.4495 41.1111 37.5522 41.1111 36.655C41.1111 35.7578 41.2108 34.8606 41.4104 33.9634C41.6099 33.0662 42.009 32.169 42.4081 31.3715C42.907 30.574 43.5056 29.7765 44.3038 28.9789C45.102 28.2811 45.9999 27.5833 47.0974 26.9851C47.5963 26.6861 47.9954 26.4867 48.3945 26.387C48.7936 26.1876 49.1927 26.0879 49.492 25.9882C49.8911 25.8886 50.1904 25.7889 50.4897 25.7889C50.789 25.6892 51.1881 25.6892 51.5872 25.6892L52.6847 33.2656ZM48.1949 30.2749C47.8956 30.3746 47.6961 30.4743 47.3968 30.574C46.7981 30.873 46.399 31.2718 45.9999 31.8699C45.6008 32.4681 45.4013 33.1659 45.2018 33.8637C45.0022 34.5616 45.0022 35.3591 45.102 36.2563C45.2017 37.0538 45.5011 37.8513 45.8004 38.6488C46.399 39.7454 46.9977 40.0445 47.6961 39.6457C47.8956 39.546 48.0952 39.3467 48.2947 39.1473C48.4943 38.9479 48.594 38.6488 48.6938 38.3498C48.7936 38.0507 48.8934 37.6519 48.8934 37.2532C48.8934 36.8544 48.8934 36.356 48.7936 35.7578L48.1949 30.2749Z" fill="#2CAAF2"/>
<path d="M103.566 14.5212C105.494 14.5212 107.058 12.9591 107.058 11.0321C107.058 9.10511 105.494 7.54297 103.566 7.54297C101.637 7.54297 100.074 9.10511 100.074 11.0321C100.074 12.9591 101.637 14.5212 103.566 14.5212Z" fill="#D4ECFF"/>
<path d="M293.038 12.2285C293.038 14.9202 290.843 17.1133 288.149 17.1133C285.455 17.1133 283.26 14.9202 283.26 12.2285C283.26 9.53692 285.455 7.34375 288.149 7.34375C290.843 7.44344 293.038 9.53692 293.038 12.2285Z" fill="#D4ECFF"/>
<path d="M104.264 219.881C116.993 219.881 127.312 209.571 127.312 196.853C127.312 184.134 116.993 173.824 104.264 173.824C91.5348 173.824 81.2168 184.134 81.2168 196.853C81.2168 209.571 91.5348 219.881 104.264 219.881Z" fill="#3F69D0"/>
<path d="M107.858 187.384C110.751 187.384 113.046 185.091 113.046 182.2C113.046 179.309 110.751 177.016 107.858 177.016C104.965 177.016 102.67 179.309 102.67 182.2C102.57 184.991 104.965 187.384 107.858 187.384ZM105.862 211.808C104.067 210.113 112.647 195.857 111.45 191.172C110.652 187.783 96.9828 189.976 96.8828 190.973C96.8828 190.973 100.774 190.474 101.472 192.269C102.171 194.063 96.8828 205.029 95.8848 209.216C94.8868 213.403 99.5768 214.699 102.67 214.699C106.361 214.699 112.248 212.207 112.048 211.01C111.849 209.914 107.658 213.403 105.862 211.808Z" fill="#F7FBFC"/>
<path d="M235.166 14.3222V13.8237C235.166 10.1352 232.173 7.14453 228.482 7.14453H221.098C217.407 7.14453 214.414 10.1352 214.414 13.8237V14.3222C214.414 18.0107 217.407 21.0014 221.098 21.0014H228.482C228.581 21.0014 228.681 21.0014 228.781 21.0014C229.679 22.4968 231.575 24.1915 234.767 24.3908C234.767 24.3908 232.273 23.1946 231.774 20.1042C233.77 19.0076 235.166 16.8144 235.166 14.3222Z" fill="#183D85"/>
<path d="M221.898 14.123C221.898 14.7211 221.399 15.2195 220.801 15.2195C220.202 15.2195 219.703 14.7211 219.703 14.123C219.703 13.5248 220.202 13.0264 220.801 13.0264C221.299 12.9267 221.898 13.4251 221.898 14.123Z" fill="#FEFEFE"/>
<path d="M225.988 14.123C225.988 14.7211 225.489 15.2195 224.89 15.2195C224.292 15.2195 223.793 14.7211 223.793 14.123C223.793 13.5248 224.292 13.0264 224.89 13.0264C225.489 12.9267 225.988 13.4251 225.988 14.123Z" fill="#FEFEFE"/>
<path d="M230.08 14.123C230.08 14.7211 229.581 15.2195 228.983 15.2195C228.384 15.2195 227.885 14.7211 227.885 14.123C227.885 13.5248 228.384 13.0264 228.983 13.0264C229.581 12.9267 230.08 13.4251 230.08 14.123Z" fill="#FEFEFE"/>
</g>
<defs>
<linearGradient id="paint0_linear_6_391" x1="7.38927" y1="161.045" x2="57.1013" y2="161.045" gradientUnits="userSpaceOnUse">
<stop stop-color="#BB7AD5"/>
<stop offset="1" stop-color="#FBFBFB"/>
</linearGradient>
<linearGradient id="paint1_linear_6_391" x1="1.33823" y1="157.92" x2="56.8956" y2="157.92" gradientUnits="userSpaceOnUse">
<stop stop-color="#BB7AD5"/>
<stop offset="1" stop-color="#FBFBFB"/>
</linearGradient>
<linearGradient id="paint2_linear_6_391" x1="-28.6406" y1="135.882" x2="42.7641" y2="135.882" gradientUnits="userSpaceOnUse">
<stop stop-color="#BB7AD5"/>
<stop offset="1" stop-color="#FBFBFB"/>
</linearGradient>
<linearGradient id="paint3_linear_6_391" x1="14.2853" y1="164.231" x2="56.5859" y2="164.231" gradientUnits="userSpaceOnUse">
<stop stop-color="#BB7AD5"/>
<stop offset="1" stop-color="#FBFBFB"/>
</linearGradient>
<linearGradient id="paint4_linear_6_391" x1="-4.10699" y1="154.789" x2="56.0745" y2="154.789" gradientUnits="userSpaceOnUse">
<stop stop-color="#BB7AD5"/>
<stop offset="1" stop-color="#FBFBFB"/>
</linearGradient>
<linearGradient id="paint5_linear_6_391" x1="35.1036" y1="170.602" x2="48.5179" y2="170.602" gradientUnits="userSpaceOnUse">
<stop stop-color="#BB7AD5"/>
<stop offset="1" stop-color="#FBFBFB"/>
</linearGradient>
<linearGradient id="paint6_linear_6_391" x1="-9.07842" y1="151.646" x2="54.7559" y2="151.646" gradientUnits="userSpaceOnUse">
<stop stop-color="#BB7AD5"/>
<stop offset="1" stop-color="#FBFBFB"/>
</linearGradient>
<linearGradient id="paint7_linear_6_391" x1="-25.3417" y1="139.038" x2="45.782" y2="139.038" gradientUnits="userSpaceOnUse">
<stop stop-color="#BB7AD5"/>
<stop offset="1" stop-color="#FBFBFB"/>
</linearGradient>
<linearGradient id="paint8_linear_6_391" x1="-21.7515" y1="142.192" x2="48.5076" y2="142.192" gradientUnits="userSpaceOnUse">
<stop stop-color="#BB7AD5"/>
<stop offset="1" stop-color="#FBFBFB"/>
</linearGradient>
<linearGradient id="paint9_linear_6_391" x1="-17.8614" y1="145.348" x2="50.928" y2="145.348" gradientUnits="userSpaceOnUse">
<stop stop-color="#BB7AD5"/>
<stop offset="1" stop-color="#FBFBFB"/>
</linearGradient>
<linearGradient id="paint10_linear_6_391" x1="-13.6431" y1="148.499" x2="53.0277" y2="148.499" gradientUnits="userSpaceOnUse">
<stop stop-color="#BB7AD5"/>
<stop offset="1" stop-color="#FBFBFB"/>
</linearGradient>
<linearGradient id="paint11_linear_6_391" x1="22.6034" y1="167.417" x2="54.64" y2="167.417" gradientUnits="userSpaceOnUse">
<stop stop-color="#BB7AD5"/>
<stop offset="1" stop-color="#FBFBFB"/>
</linearGradient>
<linearGradient id="paint12_linear_6_391" x1="-38.906" y1="123.261" x2="27.7648" y2="123.261" gradientUnits="userSpaceOnUse">
<stop stop-color="#BB7AD5"/>
<stop offset="1" stop-color="#FBFBFB"/>
</linearGradient>
<linearGradient id="paint13_linear_6_391" x1="-36.8087" y1="126.413" x2="31.9809" y2="126.413" gradientUnits="userSpaceOnUse">
<stop stop-color="#BB7AD5"/>
<stop offset="1" stop-color="#FBFBFB"/>
</linearGradient>
<linearGradient id="paint14_linear_6_391" x1="-34.3877" y1="129.567" x2="35.8714" y2="129.567" gradientUnits="userSpaceOnUse">
<stop stop-color="#BB7AD5"/>
<stop offset="1" stop-color="#FBFBFB"/>
</linearGradient>
<linearGradient id="paint15_linear_6_391" x1="-31.6608" y1="132.723" x2="39.4629" y2="132.723" gradientUnits="userSpaceOnUse">
<stop stop-color="#BB7AD5"/>
<stop offset="1" stop-color="#FBFBFB"/>
</linearGradient>
<linearGradient id="paint16_linear_6_391" x1="-40.6347" y1="120.113" x2="23.1995" y2="120.113" gradientUnits="userSpaceOnUse">
<stop stop-color="#BB7AD5"/>
<stop offset="1" stop-color="#FBFBFB"/>
</linearGradient>
<linearGradient id="paint17_linear_6_391" x1="-42.9816" y1="110.715" x2="6.7301" y2="110.715" gradientUnits="userSpaceOnUse">
<stop stop-color="#BB7AD5"/>
<stop offset="1" stop-color="#FBFBFB"/>
</linearGradient>
<linearGradient id="paint18_linear_6_391" x1="-41.9536" y1="116.974" x2="18.228" y2="116.974" gradientUnits="userSpaceOnUse">
<stop stop-color="#BB7AD5"/>
<stop offset="1" stop-color="#FBFBFB"/>
</linearGradient>
<linearGradient id="paint19_linear_6_391" x1="-42.7783" y1="113.841" x2="12.7793" y2="113.841" gradientUnits="userSpaceOnUse">
<stop stop-color="#BB7AD5"/>
<stop offset="1" stop-color="#FBFBFB"/>
</linearGradient>
<clipPath id="clip0_6_391">
<rect width="314" height="232" fill="white"/>
</clipPath>
</defs>
</svg>
