<svg width="64" height="64" viewBox="0 0 64 64" fill="none" xmlns="http://www.w3.org/2000/svg">
<path fill-rule="evenodd" clip-rule="evenodd" d="M30.889 51.7473C31.1651 53.2154 31.3477 54.6997 31.4358 56.1912C28.0036 52.7835 26.3756 45.5472 22.3115 42.7786C22.1195 42.5445 21.9347 42.3101 21.7431 42.0869C26.4391 42.3112 28.5661 47.3279 30.889 51.7473Z" fill="#393353"/>
<path fill-rule="evenodd" clip-rule="evenodd" d="M32.0481 51.7469C31.7542 53.2114 31.5541 54.6935 31.4491 56.184C34.9215 52.8166 36.6314 45.5997 40.727 42.8787C40.9217 42.6469 41.1092 42.4147 41.3046 42.1937C36.6051 42.3632 34.4205 47.3548 32.0481 51.7469Z" fill="#393353"/>
<path fill-rule="evenodd" clip-rule="evenodd" d="M31.6452 12.5375C29.2311 12.5375 27.2732 14.8706 27.2732 17.7499C27.2732 20.6292 29.2311 22.9611 31.6452 22.9611C34.0593 22.9611 36.0219 20.628 36.0219 17.7499C36.0219 14.8718 34.0581 12.5375 31.6452 12.5375Z" fill="#393353"/>
<path fill-rule="evenodd" clip-rule="evenodd" d="M24.5646 22.4242C27.4744 24.5946 30.2765 28.8086 31.6584 31.829C33.0391 28.8147 35.8411 24.5946 38.7581 22.4242C36.077 24.2461 33.5121 25.9124 31.6584 25.9124C29.8047 25.9124 27.2349 24.2461 24.5646 22.4242Z" fill="#393353"/>
<path fill-rule="evenodd" clip-rule="evenodd" d="M31.4667 56.0708C31.475 56.1364 31.4833 56.2024 31.4915 56.2687C31.5101 56.1176 31.5291 55.9681 31.5484 55.8202C32.5585 48.0568 34.3565 44.5714 36.7819 42.592C36.5184 29.582 42.095 23.6618 47.0537 20.6691C52.0651 17.6463 48.6404 16.3055 45.4384 17.5438C43.5226 18.2858 41.3304 19.7834 39.1766 21.2547C36.294 23.224 33.4804 25.146 31.4915 25.146C29.5035 25.146 26.6942 23.226 23.8145 21.2578C21.6603 19.7855 19.4668 18.2863 17.5482 17.5438C14.3414 16.3019 10.9166 17.6463 15.928 20.6691C18.0493 21.9495 20.2836 23.765 22.1255 26.4414C24.5688 30.0191 26.3113 35.1283 26.1611 42.5354C26.1679 42.541 26.1747 42.5465 26.1815 42.5521C26.1882 42.5576 26.1949 42.5631 26.2015 42.5686L26.2011 42.592C26.8256 43.102 27.4087 43.7122 27.9475 44.47C29.5189 46.7103 30.7098 50.2251 31.4499 56.1989C31.4496 56.2034 31.4493 56.2078 31.4491 56.2122C31.4495 56.2089 31.4499 56.2055 31.4503 56.2022C31.4507 56.2055 31.4511 56.2089 31.4515 56.2122C31.4513 56.2078 31.4502 56.2033 31.4499 56.1989C31.4552 56.1561 31.4613 56.1134 31.4667 56.0708ZM17.5077 17.6499C16.7178 17.344 15.9161 17.1981 15.2372 17.1968C14.5523 17.1954 14.0148 17.3409 13.7308 17.5925C13.5926 17.715 13.5158 17.8609 13.5055 18.0313C13.495 18.2046 13.5527 18.4171 13.7114 18.6702C14.0306 19.1789 14.7375 19.8185 15.986 20.5716C17.7115 21.6131 19.5125 23.0077 21.1188 24.9288C29.3692 33.1739 30.6458 44.2207 31.3233 54.241C31.3815 54.6139 31.4375 54.9977 31.4914 55.3928C31.4976 55.3474 31.5038 55.3021 31.5101 55.257C32.1885 44.7656 33.294 32.9875 42.3081 24.4156C43.7978 22.7557 45.428 21.5178 46.9957 20.5716C48.2442 19.8185 48.9512 19.1791 49.2704 18.6707C49.4292 18.4177 49.4869 18.2053 49.4765 18.0322C49.4663 17.862 49.3896 17.7162 49.2515 17.5938C48.9679 17.3425 48.4308 17.1971 47.7465 17.1983C47.0683 17.1995 46.2675 17.3449 45.4789 17.6499C43.5765 18.3867 41.3971 19.8753 39.2421 21.3474C38.8773 21.5966 38.5131 21.8454 38.151 22.0899C36.9046 22.9319 35.685 23.7229 34.5581 24.3033C33.4338 24.8825 32.3879 25.2597 31.4915 25.2597C30.595 25.2597 29.5496 24.8825 28.4258 24.3033C27.2996 23.7229 26.0808 22.9319 24.835 22.0899C24.4747 21.8464 24.1122 21.5987 23.7491 21.3505C21.5936 19.8775 19.4129 18.3872 17.5077 17.6499ZM31.4609 56.0252C31.4522 55.9565 31.4434 55.8882 31.4345 55.8202C31.4294 55.7807 31.4242 55.7413 31.4191 55.7021C31.4295 55.8659 31.4399 56.0294 31.4503 56.1926C31.4538 56.1368 31.4574 56.081 31.4609 56.0252Z" fill="#393353"/>
<path d="M17.569 58.9317L17.6382 58.7467L18.2529 58.9798L19.0178 56.9347L19.2396 57.0188L18.4747 59.0639L19.0926 59.2982L19.0234 59.4833L17.569 58.9317Z" fill="#393353"/>
<path d="M14.3197 56.8877L15.4481 54.7929L15.6564 54.9067L15.1286 55.8866L16.2566 56.5027L16.7844 55.5227L16.9928 55.6365L15.8644 57.7313L15.6561 57.6175L16.1629 56.6765L15.0349 56.0605L14.5281 57.0015L14.3197 56.8877Z" fill="#393353"/>
<path d="M12.647 53.2243L13.5176 53.8621L14.0153 53.5268L14.2179 53.6752L12.1453 55.066L11.929 54.9075L12.608 52.4959L12.8106 52.6443L12.647 53.2243ZM12.5889 53.4263L12.2138 54.7451L13.3446 53.9798L12.5889 53.4263Z" fill="#393353"/>
<path d="M8.3809 51.0375L10.044 49.3854L10.2104 49.5553L8.88238 50.8746L10.7954 50.1523L10.9167 50.2761L10.1784 52.1876L11.5016 50.8731L11.6681 51.043L10.005 52.6951L9.82905 52.5155L10.6355 50.4357L8.55924 51.2195L8.3809 51.0375Z" fill="#393353"/>
<path d="M7.25067 47.4269C7.19435 47.3028 7.1848 47.1706 7.22201 47.0303C7.25923 46.89 7.33784 46.7774 7.45784 46.6924C7.55568 46.6231 7.66183 46.5854 7.77628 46.5794C7.88759 46.5728 7.99943 46.6005 8.11182 46.6626C8.22236 46.7261 8.32374 46.8238 8.41595 46.9558L8.88739 47.6305L6.9517 49.0017L6.49389 48.3464C6.35623 48.1494 6.29691 47.9677 6.31594 47.8014C6.33368 47.6332 6.41454 47.4981 6.55854 47.3961C6.67854 47.3111 6.79912 47.2743 6.92026 47.2858C7.03957 47.2985 7.1497 47.3455 7.25067 47.4269ZM7.67102 48.2004L7.35348 47.7459C7.26127 47.6139 7.16003 47.5341 7.04976 47.5067C6.93634 47.4786 6.82517 47.5032 6.71624 47.5803C6.60917 47.6562 6.55049 47.7519 6.54022 47.8676C6.52865 47.9814 6.57091 48.1071 6.66702 48.2446L6.97871 48.6908L7.67102 48.2004ZM8.26231 47.0854C8.1636 46.9441 8.05375 46.858 7.93274 46.827C7.81043 46.7942 7.69112 46.8189 7.57482 46.9013C7.45851 46.9837 7.39542 47.0909 7.38556 47.2229C7.37255 47.3544 7.41475 47.4899 7.51215 47.6293L7.83164 48.0866L8.58764 47.5511L8.26231 47.0854Z" fill="#393353"/>
<path d="M6.05455 43.8057L6.55275 44.7668L7.14658 44.6892L7.26251 44.9129L4.79195 45.2307L4.66818 44.9919L6.3413 43.1358L6.45723 43.3594L6.05455 43.8057ZM5.91336 43.9606L4.99498 44.974L6.34576 44.7948L5.91336 43.9606Z" fill="#393353"/>
<path d="M3.19644 41.3197L3.37948 41.248L3.61741 41.8645L5.64032 41.0729L5.72617 41.2953L3.70327 42.087L3.94243 42.7066L3.75939 42.7782L3.19644 41.3197Z" fill="#393353"/>
<path d="M2.42911 38.253L2.61787 38.1984L2.79906 38.8342L4.88515 38.2313L4.95053 38.4607L2.86444 39.0635L3.04657 39.7025L2.85781 39.7571L2.42911 38.253Z" fill="#393353"/>
<path d="M2 35.0825L3.55634 35.5791L4.46301 35.4164L4.50457 35.6514L3.59791 35.814L2.30877 36.8278L2.26186 36.5627L3.36379 35.7348L2.04632 35.3443L2 35.0825Z" fill="#393353"/>
<path d="M2.34115 29.0884L4.68207 30.0575L4.67457 30.3301L2.28395 31.1672L2.29107 30.9082L4.4211 30.1866L2.33421 29.3405L2.34115 29.0884Z" fill="#393353"/>
<path d="M2.47013 26.8443L4.81428 27.1723L4.78166 27.4087L2.43751 27.0807L2.47013 26.8443Z" fill="#393353"/>
<path d="M3.26667 23.1268L5.36068 24.5584L5.29786 24.8237L2.7876 25.1497L2.84729 24.8977L5.07897 24.6309L3.20855 23.3722L3.26667 23.1268Z" fill="#393353"/>
<path d="M4.12552 21.0527L4.95292 21.3653L5.26805 20.5194L5.45192 20.5888L5.13679 21.4347L5.97686 21.752L6.32767 20.8104L6.51154 20.8798L6.07749 22.0449L3.85841 21.2067L4.29246 20.0416L4.47633 20.1111L4.12552 21.0527Z" fill="#393353"/>
<path d="M8.20636 17.9353L6.76016 18.3343L7.72711 18.8487L7.61639 19.0597L5.52383 17.9464L5.63455 17.7354L6.61347 18.2562L6.1138 16.8221L6.25457 16.5538L6.78214 18.0953L8.35188 17.658L8.20636 17.9353Z" fill="#393353"/>
<path d="M9.42963 14.9191L8.80995 15.8057L9.15071 16.3014L9.00651 16.5078L7.59292 14.443L7.74687 14.2227L10.1523 14.8684L10.0081 15.0747L9.42963 14.9191ZM9.22811 14.8638L7.91258 14.5069L8.69028 15.6333L9.22811 14.8638Z" fill="#393353"/>
<path d="M12.5163 12.2806L12.3555 12.456L10.0038 12.0662L11.4669 13.4256L11.3062 13.601L9.56689 11.9849L9.72762 11.8095L12.0768 12.1971L10.6162 10.8399L10.7769 10.6645L12.5163 12.2806Z" fill="#393353"/>
<path d="M14.4185 9.62498L13.5905 10.318L13.791 10.8862L13.5984 11.0475L12.7688 8.68278L12.9745 8.51061L15.1293 9.76595L14.9366 9.92723L14.4185 9.62498ZM14.2383 9.5187L13.0608 8.82848L13.5197 10.1202L14.2383 9.5187Z" fill="#393353"/>
<path d="M17.8675 8.0799L17.6669 8.20698L15.4977 7.21279L16.5578 8.90955L16.3572 9.03663L15.0969 7.01957L15.2975 6.89249L17.465 7.88379L16.4066 6.18991L16.6072 6.06283L17.8675 8.0799Z" fill="#393353"/>
<path d="M18.9948 4.75363C19.2331 4.6444 19.4572 4.59415 19.6669 4.60288C19.8767 4.6116 20.0638 4.67696 20.228 4.79895C20.3923 4.92093 20.5254 5.09466 20.6273 5.32014C20.7283 5.54355 20.7706 5.75767 20.7541 5.96252C20.7366 6.1653 20.6623 6.34921 20.531 6.51425C20.3989 6.67721 20.2136 6.81331 19.9753 6.92254L19.3374 7.21491L18.3569 5.04601L18.9948 4.75363ZM19.8939 6.74257C20.1939 6.6051 20.3864 6.42197 20.4714 6.19319C20.5576 5.96141 20.5367 5.70382 20.4085 5.42042C20.2795 5.13496 20.0999 4.94884 19.8697 4.86206C19.6406 4.77228 19.3761 4.79612 19.0762 4.9336L18.654 5.1271L19.4718 6.93608L19.8939 6.74257Z" fill="#393353"/>
<path d="M23.3183 4.86903L22.2882 5.18442L22.2541 5.78637L22.0144 5.85977L22.1608 3.35624L22.4167 3.27789L23.9191 5.2766L23.6794 5.34999L23.3183 4.86903ZM23.1931 4.70068L22.3738 3.6046L22.2991 4.97441L23.1931 4.70068Z" fill="#393353"/>
<path d="M26.4191 4.91881L25.6617 4.04864L25.2324 4.12944L25.414 5.10798L25.181 5.15183L24.7462 2.80936L25.4451 2.67782C25.7047 2.62896 25.9127 2.65455 26.069 2.75461C26.2276 2.85425 26.3258 3.00572 26.3635 3.20902C26.395 3.37881 26.3732 3.53322 26.2979 3.67224C26.2245 3.8086 26.0968 3.9124 25.9148 3.98365L26.6987 4.86619L26.4191 4.91881ZM25.1969 3.93842L25.6662 3.8501C25.8481 3.81586 25.9763 3.74549 26.0506 3.63901C26.1272 3.5321 26.1517 3.40381 26.1239 3.25412C26.0952 3.09997 26.0289 2.98991 25.9248 2.92395C25.8203 2.85576 25.6726 2.83962 25.4818 2.87554L25.0159 2.96323L25.1969 3.93842Z" fill="#393353"/>
<path d="M29.7441 2.14889L29.8122 4.53094L29.5753 4.53781L29.5072 2.15576L29.7441 2.14889Z" fill="#393353"/>
<path d="M31.6676 4.19732L32.5166 4.23633L32.5078 4.43045L31.4221 4.38057L31.53 2L31.7667 2.01088L31.6676 4.19732Z" fill="#393353"/>
<path d="M34.0952 4.21315L34.9392 4.31354L34.9165 4.50652L33.8372 4.37813L34.1148 2.01155L34.3502 2.03954L34.0952 4.21315Z" fill="#393353"/>
<path d="M37.656 4.3523L36.6049 4.11742L36.2815 4.62485L36.0369 4.57019L37.3859 2.46205L37.647 2.5204L37.9805 5.0045L37.7359 4.94984L37.656 4.3523ZM37.6291 4.14375L37.4503 2.78374L36.7168 3.93989L37.6291 4.14375Z" fill="#393353"/>
<path d="M40.4258 3.26658L39.6832 5.52927L39.4581 5.45439L40.2008 3.1917L40.4258 3.26658Z" fill="#393353"/>
<path d="M43.2647 4.97232C43.2668 4.80133 43.222 4.64653 43.1305 4.50791C43.0419 4.36816 42.9122 4.25961 42.7413 4.18228C42.5807 4.10961 42.4199 4.08171 42.259 4.09858C42.098 4.11544 41.9495 4.17655 41.8134 4.28191C41.6782 4.38519 41.5699 4.52805 41.4884 4.71048C41.407 4.89291 41.3724 5.07034 41.3845 5.24278C41.3966 5.41522 41.4498 5.56763 41.5442 5.70003C41.6385 5.83242 41.766 5.93496 41.9266 6.00763C42.0769 6.07564 42.2261 6.10453 42.3742 6.09431C42.5252 6.08294 42.6636 6.03344 42.7894 5.94581C42.9181 5.85704 43.0237 5.73413 43.1061 5.57709L42.1982 5.16622L42.2773 4.98897L43.4138 5.50326L43.343 5.66185C43.2476 5.84791 43.1188 5.99772 42.9568 6.11128C42.7957 6.22276 42.617 6.28767 42.4207 6.306C42.2265 6.32527 42.0327 6.29111 41.8391 6.20353C41.6394 6.11316 41.4791 5.98453 41.3581 5.81764C41.238 5.64867 41.168 5.4588 41.1483 5.24803C41.1315 5.03611 41.1708 4.82339 41.2661 4.60986C41.3614 4.39633 41.4928 4.22657 41.6604 4.10058C41.831 3.97344 42.0184 3.90003 42.2227 3.88035C42.4279 3.85859 42.6304 3.8929 42.8301 3.98327C43.0607 4.08762 43.2366 4.23697 43.3577 4.43132C43.4788 4.62568 43.5322 4.84421 43.5179 5.08692L43.2647 4.97232Z" fill="#393353"/>
<path d="M45.5729 8.07302L45.3717 7.94691L45.3113 5.54784L44.2593 7.2497L44.0581 7.12359L45.3087 5.10046L45.5099 5.22656L45.5721 7.62274L46.6223 5.92377L46.8235 6.04988L45.5729 8.07302Z" fill="#393353"/>
<path d="M48.3569 9.14654L47.5257 8.45749L47.009 8.76223L46.8155 8.60189L48.9669 7.33831L49.1734 7.50949L48.3526 9.87597L48.1591 9.71563L48.3569 9.14654ZM48.4268 8.94837L48.8795 7.65444L47.7054 8.35033L48.4268 8.94837Z" fill="#393353"/>
<path d="M50.5027 11.5974L50.8029 10.4805L50.4984 10.1653L49.7897 10.8594L49.6245 10.6884L51.3208 9.02665L51.8166 9.53981C52.0008 9.73041 52.0948 9.91895 52.0986 10.1055C52.104 10.2936 52.0331 10.4598 51.8859 10.604C51.7629 10.7244 51.6231 10.7916 51.4665 10.8055C51.3131 10.8195 51.1565 10.7699 50.9969 10.6568L50.7011 11.8027L50.5027 11.5974ZM50.6367 10.0298L50.9696 10.3743C51.0987 10.5079 51.2278 10.5764 51.3571 10.5798C51.4879 10.5848 51.6075 10.5342 51.7159 10.428C51.8275 10.3187 51.8818 10.2021 51.8787 10.0783C51.8772 9.95291 51.8088 9.82017 51.6734 9.68007L51.3429 9.33796L50.6367 10.0298Z" fill="#393353"/>
<path d="M54.6753 16.2653L54.5469 16.0647L55.5105 13.8697L53.8371 14.9557L53.7087 14.7551L55.698 13.4641L55.8264 13.6647L54.8656 15.8578L56.5362 14.7738L56.6646 14.9744L54.6753 16.2653Z" fill="#393353"/>
<path d="M56.9554 18.6902L56.3874 17.7692L55.801 17.8911L55.6688 17.6768L58.109 17.1744L58.2501 17.4032L56.7191 19.3798L56.5869 19.1654L56.9554 18.6902ZM57.0847 18.5251L57.9255 17.4456L56.5918 17.7257L57.0847 18.5251Z" fill="#393353"/>
<path d="M57.5443 21.7812L58.3023 20.9115L58.1667 20.4934L57.2269 20.8025L57.1533 20.5757L59.403 19.8358L59.6238 20.5164C59.7058 20.7691 59.7077 20.9801 59.6296 21.1492C59.5522 21.3206 59.4159 21.4383 59.2206 21.5025C59.0575 21.5562 58.9026 21.5545 58.7559 21.4975C58.6121 21.442 58.4932 21.3281 58.3993 21.1557L57.6326 22.0534L57.5443 21.7812ZM58.3501 20.4331L58.4984 20.8901C58.5558 21.0672 58.6418 21.186 58.7564 21.2463C58.8716 21.3088 59.0012 21.3165 59.1449 21.2692C59.293 21.2205 59.3927 21.1399 59.444 21.0274C59.4975 20.9141 59.4942 20.7646 59.4339 20.5788L59.2867 20.1251L58.3501 20.4331Z" fill="#393353"/>
<path d="M60.1098 24.9762C59.9108 25.0174 59.7371 24.985 59.5886 24.8788C59.4402 24.7727 59.3391 24.5882 59.2855 24.3255L59.1893 23.8547L58.201 24.0594L58.1532 23.8257L60.4714 23.3455L60.6153 24.0501C60.6685 24.3105 60.6478 24.519 60.553 24.6756C60.4587 24.8343 60.3109 24.9345 60.1098 24.9762ZM59.4845 24.2843C59.559 24.6494 59.7511 24.7999 60.0606 24.7358C60.2154 24.7037 60.3237 24.6361 60.3856 24.5327C60.4474 24.4294 60.4588 24.2821 60.4197 24.0906L60.3235 23.6198L59.3883 23.8135L59.4845 24.2843Z" fill="#393353"/>
<path d="M59.8702 27.5917L59.6714 26.5262L59.0809 26.4263L59.0347 26.1784L61.4901 26.5985L61.5395 26.8632L59.4022 28.1485L59.3559 27.9006L59.8702 27.5917ZM60.0501 27.4849L61.2217 26.7846L59.8776 26.5601L60.0501 27.4849Z" fill="#393353"/>
<path d="M59.6366 31.5055L59.6242 31.2671L61.5437 29.8447L59.5556 29.9496L59.5432 29.7113L61.9066 29.5866L61.919 29.8249L60.0028 31.2472L61.9876 31.1424L62 31.3808L59.6366 31.5055Z" fill="#393353"/>
<path d="M61.9155 33.9895L59.5519 33.8684L59.5639 33.6301L61.9275 33.7512L61.9155 33.9895Z" fill="#393353"/>
<path d="M60.4527 41.6336L58.2705 40.7936L58.3552 40.5707L60.0977 41.2415L58.6526 39.7873L58.7142 39.6249L60.7479 39.5099L59.0117 38.8415L59.0963 38.6186L61.2785 39.4586L61.189 39.6943L58.975 39.8165L60.5434 41.3948L60.4527 41.6336Z" fill="#393353"/>
<path d="M57.4361 44.749L57.8868 43.7644L57.4629 43.3387L57.5678 43.1095L59.3279 44.8839L59.216 45.1285L56.7343 44.93L56.8392 44.7009L57.4361 44.749ZM57.6442 44.7668L59.0021 44.879L58.0354 43.9122L57.6442 44.7668Z" fill="#393353"/>
<path d="M54.5522 48.3377L54.6741 48.1331L57.0554 48.0334L55.3484 47.0018L55.4704 46.7972L57.4996 48.0236L57.3777 48.2282L54.9993 48.3296L56.7034 49.3594L56.5814 49.564L54.5522 48.3377Z" fill="#393353"/>
<path d="M54.5968 52.4079C54.4103 52.5931 54.2172 52.7179 54.0172 52.7824C53.8172 52.8469 53.6193 52.8503 53.4234 52.7927C53.2274 52.7351 53.0431 52.6181 52.8703 52.4417C52.6992 52.2669 52.5863 52.0805 52.5318 51.8825C52.4789 51.686 52.4858 51.4876 52.5527 51.2872C52.6211 51.0884 52.7485 50.8964 52.9349 50.7113L53.4339 50.2157L55.0958 51.9124L54.5968 52.4079ZM53.0728 50.852C52.8382 51.085 52.72 51.3237 52.7183 51.568C52.7166 51.8155 52.8243 52.05 53.0415 52.2717C53.2602 52.4951 53.4925 52.6076 53.7383 52.6093C53.984 52.6142 54.2242 52.5002 54.4589 52.2672L54.7891 51.9392L53.4031 50.5241L53.0728 50.852Z" fill="#393353"/>
<path d="M49.7277 53.6722L50.799 54.0909L51.1425 53.8193L50.5319 53.0364L50.7183 52.889L52.18 54.7632L51.6208 55.2054C51.4131 55.3696 51.2169 55.4438 51.0324 55.4279C50.846 55.4134 50.6894 55.3249 50.5625 55.1622C50.4566 55.0264 50.405 54.8793 50.4079 54.721C50.4103 54.5659 50.4758 54.4144 50.6044 54.2665L49.5041 53.8491L49.7277 53.6722ZM51.2617 53.9722L50.8863 54.269C50.7407 54.3841 50.6594 54.5062 50.6424 54.6353C50.6236 54.7657 50.6609 54.8908 50.7543 55.0106C50.8505 55.134 50.9598 55.2006 51.0824 55.2106C51.2064 55.2224 51.3447 55.1679 51.4974 55.0472L51.8702 54.7524L51.2617 53.9722Z" fill="#393353"/>
<path d="M47.2359 56.4645L48.1308 55.8617L47.9899 55.2757L48.1981 55.1354L48.7797 57.5739L48.5574 57.7237L46.5435 56.2501L46.7517 56.1098L47.2359 56.4645ZM47.4042 56.5891L48.5042 57.3985L48.1809 56.0658L47.4042 56.5891Z" fill="#393353"/>
<path d="M43.9158 60.3803L42.8913 58.2662L43.1043 58.1615L43.9224 59.8498L43.8529 57.7938L44.0081 57.7175L45.5717 59.0319L44.7566 57.3498L44.9697 57.2451L45.9941 59.3593L45.7689 59.4699L44.0686 58.0368L44.144 60.2682L43.9158 60.3803Z" fill="#393353"/>
<path d="M37.9002 59.9322L37.9781 60.6427L37.3311 60.9368L38.0262 61.0818L38.1041 61.7923L38.4558 61.1714L39.151 61.3164L38.6732 60.7877L39.025 60.1668L38.3779 60.461L37.9002 59.9322Z" fill="#393353"/>
<path d="M25.2435 59.9322L25.1656 60.6427L25.8126 60.9368L25.1175 61.0818L25.0396 61.7923L24.6879 61.1714L23.9927 61.3164L24.4705 60.7877L24.1187 60.1668L24.7657 60.461L25.2435 59.9322Z" fill="#393353"/>
<path d="M30.1846 58.2074C30.0666 58.1733 29.9806 58.1314 29.9267 58.0819C29.8732 58.0319 29.8464 57.9703 29.8464 57.8972C29.8464 57.8145 29.8791 57.7462 29.9446 57.6924C30.0105 57.638 30.096 57.6109 30.201 57.6109C30.2727 57.6109 30.3364 57.6248 30.3923 57.6527C30.4487 57.6806 30.4921 57.7191 30.5227 57.7681C30.5537 57.8172 30.5693 57.8708 30.5693 57.929H30.431C30.431 57.8655 30.4109 57.8157 30.3708 57.7797C30.3307 57.7431 30.2741 57.7248 30.201 57.7248C30.1332 57.7248 30.0802 57.74 30.042 57.7703C30.0043 57.8001 29.9854 57.8417 29.9854 57.8951C29.9854 57.9379 30.0033 57.9742 30.0391 58.004C30.0754 58.0333 30.1368 58.0603 30.2233 58.0848C30.3102 58.1093 30.378 58.1365 30.4267 58.1663C30.4759 58.1956 30.5122 58.23 30.5356 58.2694C30.5595 58.3089 30.5714 58.3553 30.5714 58.4087C30.5714 58.4938 30.5385 58.5621 30.4726 58.6135C30.4066 58.6645 30.3185 58.69 30.2082 58.69C30.1366 58.69 30.0697 58.6763 30.0076 58.6489C29.9455 58.621 29.8975 58.583 29.8636 58.5349C29.8302 58.4868 29.8135 58.4322 29.8135 58.3712H29.9517C29.9517 58.4346 29.9749 58.4849 30.0212 58.5219C30.068 58.5585 30.1304 58.5767 30.2082 58.5767C30.2808 58.5767 30.3364 58.5618 30.3751 58.532C30.4138 58.5022 30.4332 58.4616 30.4332 58.4101C30.4332 58.3587 30.4152 58.319 30.3794 58.2911C30.3436 58.2627 30.2787 58.2348 30.1846 58.2074Z" fill="#393353"/>
<path d="M30.8716 58.6756H30.7391V57.8951H30.8716V58.6756ZM30.7283 57.688C30.7283 57.6664 30.7348 57.6481 30.7477 57.6332C30.761 57.6183 30.7806 57.6109 30.8064 57.6109C30.8322 57.6109 30.8518 57.6183 30.8651 57.6332C30.8785 57.6481 30.8852 57.6664 30.8852 57.688C30.8852 57.7097 30.8785 57.7277 30.8651 57.7421C30.8518 57.7566 30.8322 57.7638 30.8064 57.7638C30.7806 57.7638 30.761 57.7566 30.7477 57.7421C30.7348 57.7277 30.7283 57.7097 30.7283 57.688Z" fill="#393353"/>
<path d="M31.2097 57.8951L31.214 57.9932C31.2732 57.9182 31.3506 57.8806 31.4461 57.8806C31.61 57.8806 31.6926 57.9737 31.694 58.1598V58.6756H31.5615V58.1591C31.561 58.1028 31.5481 58.0612 31.5228 58.0343C31.498 58.0074 31.459 57.9939 31.406 57.9939C31.363 57.9939 31.3253 58.0054 31.2928 58.0285C31.2604 58.0516 31.235 58.0819 31.2169 58.1194V58.6756H31.0844V57.8951H31.2097Z" fill="#393353"/>
<path d="M32.2048 58.5811C32.2521 58.5811 32.2934 58.5666 32.3287 58.5378C32.3641 58.5089 32.3837 58.4729 32.3875 58.4296H32.5129C32.5105 58.4743 32.4952 58.5169 32.467 58.5573C32.4388 58.5977 32.4011 58.6299 32.3538 58.6539C32.307 58.678 32.2573 58.69 32.2048 58.69C32.0993 58.69 32.0152 58.6547 31.9526 58.584C31.8905 58.5128 31.8595 58.4156 31.8595 58.2925V58.2702C31.8595 58.1942 31.8734 58.1266 31.9011 58.0675C31.9288 58.0083 31.9684 57.9624 32.02 57.9297C32.072 57.897 32.1334 57.8806 32.2041 57.8806C32.291 57.8806 32.3631 57.9069 32.4204 57.9593C32.4782 58.0117 32.509 58.0797 32.5129 58.1634H32.3875C32.3837 58.1129 32.3646 58.0716 32.3302 58.0393C32.2963 58.0066 32.2542 57.9903 32.2041 57.9903C32.1367 57.9903 32.0845 58.0148 32.0472 58.0639C32.0104 58.1124 31.992 58.1829 31.992 58.2752V58.3005C31.992 58.3904 32.0104 58.4596 32.0472 58.5082C32.084 58.5568 32.1365 58.5811 32.2048 58.5811Z" fill="#393353"/>
<path d="M32.9835 58.69C32.8785 58.69 32.793 58.6554 32.7271 58.5861C32.6612 58.5164 32.6282 58.4233 32.6282 58.307V58.2824C32.6282 58.205 32.6428 58.136 32.6719 58.0754C32.7015 58.0143 32.7426 57.9667 32.7951 57.9326C32.8481 57.898 32.9054 57.8806 32.9671 57.8806C33.0678 57.8806 33.1462 57.9141 33.202 57.9809C33.2579 58.0477 33.2859 58.1435 33.2859 58.268V58.3236H32.7607C32.7626 58.4005 32.7849 58.4628 32.8274 58.5104C32.8703 58.5575 32.9248 58.5811 32.9907 58.5811C33.0375 58.5811 33.0771 58.5715 33.1096 58.5522C33.1421 58.533 33.1705 58.5075 33.1949 58.4758L33.2758 58.5392C33.2109 58.6397 33.1134 58.69 32.9835 58.69ZM32.9671 57.9903C32.9136 57.9903 32.8687 58.01 32.8324 58.0494C32.7961 58.0884 32.7736 58.1432 32.765 58.2139H33.1533V58.2038C33.1495 58.136 33.1313 58.0836 33.0989 58.0466C33.0664 58.009 33.0225 57.9903 32.9671 57.9903Z" fill="#393353"/>
<path d="M29.8292 61.9711H28.4623V61.7793L29.1845 60.9714C29.2915 60.8492 29.365 60.7501 29.4051 60.6742C29.4462 60.5972 29.4667 60.5179 29.4667 60.4361C29.4667 60.3265 29.4338 60.2365 29.3679 60.1663C29.302 60.0961 29.2141 60.061 29.1042 60.061C28.9724 60.061 28.8697 60.099 28.7962 60.175C28.7236 60.25 28.6873 60.3548 28.6873 60.4895H28.4222C28.4222 60.2962 28.4838 60.1399 28.6071 60.0206C28.7312 59.9013 28.897 59.8417 29.1042 59.8417C29.2981 59.8417 29.4515 59.8932 29.5642 59.9961C29.6769 60.098 29.7332 60.2341 29.7332 60.4044C29.7332 60.6112 29.6024 60.8574 29.3406 61.143L28.7819 61.7533H29.8292V61.9711Z" fill="#393353"/>
<path d="M31.4182 61.0752C31.4182 61.3878 31.3652 61.6201 31.2592 61.7721C31.1531 61.924 30.9874 62 30.762 62C30.5394 62 30.3746 61.9259 30.2677 61.7778C30.1607 61.6287 30.1053 61.4066 30.1015 61.1113V60.7549C30.1015 60.4462 30.1545 60.2168 30.2605 60.0668C30.3665 59.9167 30.5327 59.8417 30.7591 59.8417C30.9836 59.8417 31.1488 59.9143 31.2549 60.0596C31.3609 60.2038 31.4153 60.427 31.4182 60.729V61.0752ZM31.1531 60.7102C31.1531 60.4842 31.1216 60.3197 31.0586 60.2168C30.9955 60.1129 30.8957 60.061 30.7591 60.061C30.6235 60.061 30.5246 60.1125 30.4625 60.2154C30.4004 60.3183 30.3684 60.4765 30.3665 60.69V61.1171C30.3665 61.3441 30.399 61.5119 30.464 61.6206C30.5299 61.7283 30.6292 61.7822 30.762 61.7822C30.8928 61.7822 30.9898 61.7312 31.0528 61.6292C31.1168 61.5273 31.1503 61.3667 31.1531 61.1474V60.7102Z" fill="#393353"/>
<path d="M32.6289 61.9711H32.3624V60.1923L31.828 60.3899V60.1476L32.5874 59.8605H32.6289V61.9711Z" fill="#393353"/>
<path d="M34.4213 61.0478C34.3659 61.1142 34.2996 61.1676 34.2222 61.208C34.1458 61.2484 34.0617 61.2686 33.97 61.2686C33.8497 61.2686 33.7446 61.2387 33.6548 61.1791C33.566 61.1195 33.4972 61.0358 33.4485 60.9281C33.3998 60.8194 33.3754 60.6996 33.3754 60.5688C33.3754 60.4284 33.4017 60.3019 33.4542 60.1894C33.5077 60.0769 33.5832 59.9908 33.6806 59.9312C33.778 59.8715 33.8917 59.8417 34.0216 59.8417C34.2279 59.8417 34.3903 59.9196 34.5087 60.0754C34.6281 60.2303 34.6878 60.4419 34.6878 60.7102V60.7881C34.6878 61.1969 34.6076 61.4955 34.4471 61.6841C34.2867 61.8716 34.0445 61.9678 33.7207 61.9726H33.6691V61.7475H33.725C33.9437 61.7437 34.1119 61.6865 34.2293 61.5758C34.3468 61.4643 34.4108 61.2883 34.4213 61.0478ZM34.013 61.0478C34.1018 61.0478 34.1835 61.0204 34.258 60.9656C34.3335 60.9108 34.3884 60.843 34.4228 60.7622V60.6554C34.4228 60.4804 34.385 60.338 34.3096 60.2284C34.2341 60.1187 34.1386 60.0639 34.023 60.0639C33.9065 60.0639 33.8129 60.1091 33.7422 60.1995C33.6715 60.289 33.6362 60.4073 33.6362 60.5544C33.6362 60.6977 33.6701 60.816 33.7379 60.9093C33.8067 61.0017 33.8984 61.0478 34.013 61.0478Z" fill="#393353"/>
</svg>
