<svg width="156" height="87" viewBox="0 0 156 87" fill="none" xmlns="http://www.w3.org/2000/svg">
<rect width="156" height="87" fill="#36868E"/>
<mask id="mask0_3_502" style="mask-type:alpha" maskUnits="userSpaceOnUse" x="0" y="0" width="156" height="87">
<rect width="156" height="87" fill="#6759AE"/>
</mask>
<g mask="url(#mask0_3_502)">
<path d="M58.5 87.0498C47.7305 87.0498 39 80.5579 39 72.5498H58.5V87.0498Z" fill="#FF743C"/>
<path d="M97.5 72.5498V72.5498C97.5 80.5579 88.7695 87.0498 78 87.0498V87.0498V72.5498H97.5Z" fill="#F0F1F1"/>
<path d="M0 72.5498V72.5498C1.41226e-06 64.5417 8.73044 58.0498 19.5 58.0498V58.0498V72.5498H0Z" fill="#FF743C"/>
<path d="M134.258 15.8775V15.8775C124.08 15.8775 115.83 10.5217 115.83 3.91504V3.91504H134.258V15.8775Z" fill="#FFC700"/>
<path d="M136.5 58.0498C125.731 58.0498 117 51.5579 117 43.5498H136.5V58.0498Z" fill="#2D3652"/>
<path d="M60.9375 -8.12012C60.9375 -1.47343 52.6871 3.91488 42.51 3.91488V-8.12012L60.9375 -8.12012Z" fill="#FF743C"/>
<path d="M19.5 87.0498V87.0498C8.73044 87.0498 -2.22533e-06 80.5579 0 72.5498V72.5498H19.5V87.0498Z" fill="#D5E155"/>
<path d="M19.5006 79.9498V79.9498C14.0044 79.9498 9.54883 76.6368 9.54883 72.5498V72.5498H19.5006V79.9498Z" fill="#2D3652"/>
<path d="M78 87.0498V87.0498C67.2303 87.0498 58.5 80.5579 58.5 72.5498V72.5498H78V87.0498Z" fill="#6ED47C"/>
<path d="M78.0006 79.9498V79.9498C72.5043 79.9498 68.0488 76.6368 68.0488 72.5498V72.5498H78.0006V79.9498Z" fill="#D5E155"/>
<path d="M19.5 29.0498V36.2998C19.5 40.3038 15.1348 43.5498 9.75 43.5498V36.2998C9.75 32.2958 14.1152 29.0498 19.5 29.0498Z" fill="#D5E155"/>
<path d="M133.965 -3.19043H124.8C119.738 -3.19043 115.635 -0.496275 115.635 2.82707V2.82707H124.8C129.861 2.82707 133.965 0.132915 133.965 -3.19043V-3.19043Z" fill="#2D3652"/>
<path d="M9.75 36.2998V43.5498C9.75 47.5538 5.38477 50.7998 0 50.7998V50.7998L4.26186e-07 43.5498C6.61561e-07 39.5458 4.36523 36.2998 9.75 36.2998V36.2998Z" fill="#6ED47C"/>
<path d="M155.707 7.32227H145.957C140.572 7.32227 136.207 10.5682 136.207 14.5723V14.5723H145.957C151.342 14.5723 155.707 11.3263 155.707 7.32227V7.32227Z" fill="#FFC700"/>
<path d="M155.707 7.32227H145.957C140.572 7.32227 136.207 4.07633 136.207 0.0722656V0.0722656L145.957 0.0722663C151.342 0.0722666 155.707 3.31821 155.707 7.32227V7.32227Z" fill="#FF743C"/>
<path d="M61.1074 -7.95508V1.24206C61.1074 6.32146 67.3356 10.4392 75.0182 10.4392V10.4392V1.24206C75.0182 -3.83733 68.7901 -7.95508 61.1074 -7.95508V-7.95508Z" fill="#FF743C"/>
<path d="M68.0645 0.994141V5.69312C68.0645 8.31465 71.1785 10.4399 75.0199 10.4399V10.4399V5.74087C75.0199 3.11925 71.9058 0.994141 68.0645 0.994141V0.994141Z" fill="#2D3652"/>
<path d="M39 87.0498V72.5498C39 64.5417 30.2695 58.0498 19.5 58.0498V58.0498V72.5498C19.5 80.5579 28.2305 87.0498 39 87.0498V87.0498Z" fill="#F0F1F1"/>
<path d="M29.25 72.5V65.3115C29.25 61.3011 24.8847 58.05 19.5 58.05V58.05L19.5 65.2385C19.5 69.249 23.8653 72.5 29.25 72.5V72.5Z" fill="#FFC700"/>
<path d="M35.2731 -9.94336V1.7395C35.2731 8.19171 28.1552 13.4224 19.375 13.4224V13.4224V1.7395C19.375 -4.71271 26.4929 -9.94336 35.2731 -9.94336V-9.94336Z" fill="#FF743C"/>
<path d="M27.324 1.49121V7.42677C27.324 10.7382 23.7651 13.4226 19.375 13.4226V13.4226V7.48708C19.375 4.17556 22.9339 1.49121 27.324 1.49121V1.49121Z" fill="#060039"/>
<path d="M103.835 3.97656H91.4145C84.555 3.97656 78.9941 7.53786 78.9941 11.9308V11.9308H91.4145C98.2741 11.9308 103.835 8.36956 103.835 3.97656V3.97656Z" fill="#2D3652"/>
<path d="M91.4145 7.9541H85.2357C81.7886 7.9541 78.9941 9.73475 78.9941 11.9312V11.9312H85.1729C88.6202 11.9312 91.4145 10.1506 91.4145 7.9541V7.9541Z" fill="#6ED47C"/>
<path d="M97.5 65.2998H107.201C112.613 65.2998 117 68.5458 117 72.5498V72.5498H107.299C101.887 72.5498 97.5 69.3038 97.5 65.2998V65.2998Z" fill="#6ED47C"/>
<path d="M117 87.0498V72.5498C117 64.5417 125.731 58.0498 136.5 58.0498V58.0498V72.5498C136.5 80.5579 127.769 87.0498 117 87.0498V87.0498Z" fill="#6ED47C"/>
<path d="M126.75 72.4998V65.3113C126.75 61.3009 131.115 58.0498 136.5 58.0498V58.0498V65.2384C136.5 69.2487 132.135 72.4998 126.75 72.4998V72.4998Z" fill="#2D3652"/>
<path d="M17.0121 54.0246C17.0121 55.2258 15.7025 56.1996 14.0871 56.1996V56.1996C12.4717 56.1996 11.1621 55.2258 11.1621 54.0246V54.0246C11.1621 52.8234 12.4717 51.8496 14.0871 51.8496V51.8496C15.7025 51.8496 17.0121 52.8234 17.0121 54.0246V54.0246Z" fill="#FF743C"/>
<path d="M7.79922 54.0246C7.79922 55.2258 6.48966 56.1996 4.87422 56.1996V56.1996C3.25878 56.1996 1.94922 55.2258 1.94922 54.0246V54.0246C1.94922 52.8234 3.25878 51.8496 4.87422 51.8496V51.8496C6.48966 51.8496 7.79922 52.8234 7.79922 54.0246V54.0246Z" fill="#2D3652"/>
<path d="M17.0121 47.175C17.0121 48.3762 15.7025 49.35 14.0871 49.35V49.35C12.4717 49.35 11.1621 48.3762 11.1621 47.175V47.175C11.1621 45.9738 12.4717 45 14.0871 45V45C15.7025 45 17.0121 45.9738 17.0121 47.175V47.175Z" fill="#6ED47C"/>
<path d="M112.418 15.2246C112.418 14.2236 113.64 13.4121 115.148 13.4121V13.4121C116.656 13.4121 117.878 14.2236 117.878 15.2246V15.2246C117.878 16.2256 116.656 17.0371 115.148 17.0371V17.0371C113.64 17.0371 112.418 16.2256 112.418 15.2246V15.2246Z" fill="#FF743C"/>
<path d="M75.377 68.8494C75.377 67.7724 76.551 66.8994 77.9994 66.8994C79.4477 66.8994 80.6218 67.7724 80.6218 68.8494C80.6218 69.9264 79.4477 70.7994 77.9994 70.7994C76.551 70.7994 75.377 69.9264 75.377 68.8494Z" fill="#FF743C"/>
<path d="M2.28711 32.6492C2.28711 31.5722 3.46121 30.6992 4.90952 30.6992V30.6992C6.35783 30.6992 7.53194 31.5722 7.53194 32.6492V32.6492C7.53194 33.7262 6.35783 34.5992 4.90952 34.5992V34.5992C3.46121 34.5992 2.28711 33.7262 2.28711 32.6492V32.6492Z" fill="#FF743C"/>
<path d="M115.83 -2.10262C115.83 -5.42596 111.749 -8.12012 106.714 -8.12012V-8.12012C101.679 -8.12012 97.5977 -5.42596 97.5977 -2.10262V-2.10262C97.5977 1.22073 101.679 3.91488 106.714 3.91488H115.83V-2.10262Z" fill="#D5E155"/>
<path d="M115.831 0.797127C115.831 -0.924563 113.713 -2.32031 111.102 -2.32031V-2.32031C108.49 -2.32031 106.373 -0.924563 106.373 0.797127V0.797127C106.373 2.51894 108.49 3.91469 111.102 3.91469H115.831V0.797127Z" fill="#FF743C"/>
<path d="M79.1699 -2.10262C79.1699 1.22073 83.2951 3.91488 88.3837 3.91488V3.91488C93.4722 3.91488 97.5974 1.22073 97.5974 -2.10262V-2.10262C97.5974 -5.42596 93.4722 -8.12012 88.3837 -8.12012H79.1699V-2.10262Z" fill="#6ED47C"/>
<path d="M42.7266 7.70513C42.7266 5.64592 45.2846 3.97656 48.4399 3.97656V3.97656C51.5953 3.97656 54.1533 5.64592 54.1533 7.70513V7.70513C54.1533 9.76435 51.5953 11.4337 48.4399 11.4337V11.4337C45.2846 11.4337 42.7266 9.76435 42.7266 7.70513V7.70513Z" fill="#FFC700"/>
<path d="M45.2109 7.70492C45.2109 6.46941 46.6568 5.46777 48.4402 5.46777V5.46777C50.2237 5.46777 51.6695 6.46941 51.6695 7.70492V7.70492C51.6695 8.94043 50.2237 9.94206 48.4402 9.94206V9.94206C46.6568 9.94206 45.2109 8.94043 45.2109 7.70492V7.70492Z" fill="#2D3652"/>
<path d="M97.5 79.7998C97.5 75.7958 101.865 72.5498 107.25 72.5498V72.5498C112.635 72.5498 117 75.7958 117 79.7998V79.7998C117 83.8038 112.635 87.0498 107.25 87.0498V87.0498C101.865 87.0498 97.5 83.8038 97.5 79.7998V79.7998Z" fill="#FF743C"/>
<path d="M101.871 79.7242C101.871 77.5013 104.295 75.6992 107.284 75.6992V75.6992C110.273 75.6992 112.697 77.5013 112.697 79.7242V79.7242C112.697 81.9471 110.273 83.7492 107.284 83.7492V83.7492C104.295 83.7492 101.871 81.9471 101.871 79.7242V79.7242Z" fill="#2D3652"/>
<path d="M136.434 29C136.434 20.9919 145.164 14.5 155.934 14.5V29H136.434Z" fill="#FF743C"/>
<path d="M155.934 58V58C145.164 58 136.434 51.5081 136.434 43.5V43.5H155.934V58Z" fill="#F0F1F1"/>
<path d="M136.434 43.5V43.5C136.434 35.4918 145.164 29 155.934 29V29V43.5H136.434Z" fill="#6ED47C"/>
<path d="M145.982 43.4996V43.4996C145.982 39.4126 150.437 36.0996 155.934 36.0996V36.0996V43.4996H145.982Z" fill="#D5E155"/>
<path d="M136.5 79.8223C136.5 83.8263 140.865 87.0723 146.25 87.0723V87.0723C151.635 87.0723 156 83.8263 156 79.8223V79.8223C156 75.8182 151.635 72.5723 146.25 72.5723H136.5V79.8223Z" fill="#FFC700"/>
<path d="M136.5 76.3223C136.5 78.3933 138.758 80.0723 141.543 80.0723V80.0723C144.328 80.0723 146.586 78.3933 146.586 76.3223V76.3223C146.586 74.2512 144.328 72.5723 141.543 72.5723H136.5V76.3223Z" fill="#FF743C"/>
<path d="M146.184 58C151.568 58 155.934 61.246 155.934 65.25V65.25C155.934 69.254 151.568 72.5 146.184 72.5V72.5C140.799 72.5 136.434 69.254 136.434 65.25V65.25C136.434 61.246 140.799 58 146.184 58V58Z" fill="#FF743C"/>
<path d="M146.284 61.25C149.274 61.25 151.697 63.0521 151.697 65.275V65.275C151.697 67.4979 149.274 69.3 146.284 69.3V69.3C143.295 69.3 140.871 67.4979 140.871 65.275V65.275C140.871 63.0521 143.295 61.25 146.284 61.25V61.25Z" fill="#2D3652"/>
<path d="M6.37813e-07 17.3991L0 5.21906C-3.52254e-07 -1.50771 7.34025 -6.96094 16.3949 -6.96094V-6.96094V5.21906C16.3949 11.9458 9.05466 17.3991 6.37813e-07 17.3991V17.3991Z" fill="#2D3652"/>
<path d="M7.94922 4.97049V-0.965058C7.94922 -4.27646 11.7306 -6.96094 16.3951 -6.96094V-6.96094V-1.02538C16.3951 2.28614 12.6137 4.97049 7.94922 4.97049V4.97049Z" fill="#6ED47C"/>
</g>
</svg>
